<svg width="50" height="50" viewBox="0 0 50 50" fill="none" xmlns="http://www.w3.org/2000/svg">
<path d="M31.565 41.8799L32.98 42.2899C32.9793 42.4945 32.9383 42.697 32.8592 42.8857C32.7802 43.0744 32.6646 43.2457 32.5192 43.3897C32.3738 43.5337 32.2015 43.6476 32.012 43.7248C31.8225 43.8021 31.6196 43.8412 31.415 43.8399H24.965C24.7599 43.8399 24.5569 43.7993 24.3676 43.7205C24.1783 43.6418 24.0064 43.5263 23.8619 43.3809C23.7174 43.2354 23.603 43.0628 23.5255 42.873C23.4479 42.6832 23.4087 42.4799 23.41 42.2749V40.2749C23.41 39.6749 21.255 36.8849 21.255 36.8849L19.755 35.3849C19.5295 35.1591 19.351 34.8908 19.23 34.5956C19.109 34.3003 19.0478 33.9839 19.05 33.6649V31.7249C19.1 32.1949 19.43 34.7249 21.25 34.7249C22.82 34.7249 23.62 36.8049 24.6 38.4449C25.0166 39.2114 25.3856 40.0029 25.705 40.8149C26 41.4949 26.745 41.8849 28.515 41.8849L31.565 41.8799Z" fill="#69D7F9"/>
<path d="M21.315 21.1099V24.6099V23.4999C20.1473 23.1824 19.1061 22.512 18.3337 21.5803C17.5614 20.6487 17.0956 19.5013 17 18.2949C17.3772 19.1301 17.9851 19.8402 18.7522 20.3415C19.5193 20.8429 20.4136 21.1147 21.33 21.1249L21.315 21.1099Z" fill="#69D7F9"/>
<path d="M24.525 21.1098L24.82 23.6098C27.18 22.9748 28.52 20.8048 28.72 18.2998C28.3855 19.137 27.8072 19.8543 27.0601 20.3589C26.313 20.8635 25.4316 21.1321 24.53 21.1298L24.525 21.1098Z" fill="#69D7F9"/>
<path d="M24.88 23.3349C26.0045 22.919 26.9749 22.1692 27.6612 21.1862C28.3476 20.2032 28.717 19.0338 28.72 17.8349V13.0299C28.72 11.4704 28.1005 9.97483 26.9978 8.87211C25.8951 7.7694 24.3995 7.1499 22.84 7.1499C21.2806 7.1499 19.7849 7.7694 18.6822 8.87211C17.5795 9.97483 16.96 11.4704 16.96 13.0299V17.8199C16.96 17.9799 16.96 18.1399 16.96 18.3199C17.0626 19.5257 17.535 20.6704 18.3127 21.5976C19.0904 22.5247 20.1355 23.1891 21.305 23.4999" stroke="#0023EF" stroke-miterlimit="10"/>
<path d="M19.28 19.2849C19.0271 18.7556 18.8956 18.1766 18.895 17.5899V13.2599C18.895 12.2137 19.3107 11.2102 20.0505 10.4704C20.7903 9.73057 21.7937 9.31494 22.84 9.31494C23.8863 9.31494 24.8897 9.73057 25.6296 10.4704C26.3694 11.2102 26.785 12.2137 26.785 13.2599V16.2299" stroke="#0023EF" stroke-miterlimit="10"/>
<path d="M20.62 16.7648V13.5548C20.6057 13.2541 20.6526 12.9536 20.7579 12.6715C20.8631 12.3894 21.0245 12.1317 21.2323 11.9138C21.4401 11.6959 21.69 11.5225 21.9667 11.404C22.2435 11.2855 22.5414 11.2244 22.8425 11.2244C23.1436 11.2244 23.4415 11.2855 23.7183 11.404C23.995 11.5225 24.2449 11.6959 24.4527 11.9138C24.6604 12.1317 24.8218 12.3894 24.9271 12.6715C25.0323 12.9536 25.0793 13.2541 25.065 13.5548" stroke="#0023EF" stroke-miterlimit="10"/>
<path d="M15.38 8.38491V6.15991H17.61" stroke="#0023EF" stroke-miterlimit="10"/>
<path d="M28.075 6.15991H30.3V8.38491" stroke="#0023EF" stroke-miterlimit="10"/>
<path d="M17.61 24.945H15.38V22.72" stroke="#0023EF" stroke-miterlimit="10"/>
<path d="M30.3 22.72V24.945H28.075" stroke="#0023EF" stroke-miterlimit="10"/>
<path d="M21.29 28.4999V34.7249V36.8799C21.29 36.8799 23.445 39.6699 23.445 40.2699V42.2699C23.4437 42.4749 23.4829 42.6782 23.5605 42.868C23.638 43.0578 23.7523 43.2304 23.8969 43.3759C24.0414 43.5214 24.2133 43.6368 24.4026 43.7156C24.5919 43.7943 24.7949 43.8349 25 43.8349H31.45C31.8598 43.8336 32.2525 43.6705 32.5428 43.3812C32.833 43.0919 32.9973 42.6997 33 42.2899V40.2899C33 39.6899 34.605 36.4249 34.61 35.8249V28.5299C34.6114 27.9958 34.4022 27.4827 34.0278 27.1017C33.6534 26.7208 33.144 26.5028 32.61 26.4949H28.23H24.88" stroke="#0023EF" stroke-miterlimit="10"/>
<path d="M24.86 28.5V26.5V23.355V18.59C24.8358 18.1322 24.6369 17.7012 24.3044 17.3858C23.9718 17.0704 23.5309 16.8945 23.0725 16.8945C22.6142 16.8945 22.1733 17.0704 21.8407 17.3858C21.5081 17.7012 21.3093 18.1322 21.285 18.59V21.14V24.64V28.535" stroke="#0023EF" stroke-miterlimit="10"/>
<path d="M28.21 28.505L28.22 26.49" stroke="#0023EF" stroke-miterlimit="10"/>
<path d="M31.56 28.5199L31.565 26.5049" stroke="#0023EF" stroke-miterlimit="10"/>
<path d="M21.29 28.5V34.725V36.88L19.79 35.38C19.5645 35.1543 19.386 34.886 19.265 34.5907C19.144 34.2954 19.0828 33.9791 19.085 33.66V29.87C19.089 29.5061 19.2359 29.1585 19.4942 28.9021C19.7524 28.6457 20.1011 28.5013 20.465 28.5H21.29Z" stroke="#0023EF" stroke-miterlimit="10"/>
</svg>
