<svg width="50" height="50" viewBox="0 0 50 50" fill="none" xmlns="http://www.w3.org/2000/svg">
<path d="M44.785 10.9601V12.9601H41.89C41.86 9.21511 38.995 8.32511 38.18 8.15011L37.965 8.11011L41.965 8.15011C42.3351 8.14813 42.7018 8.21939 43.0442 8.35978C43.3866 8.50017 43.6978 8.70692 43.9599 8.96811C44.2221 9.22931 44.4299 9.53979 44.5715 9.88167C44.7131 10.2235 44.7857 10.5901 44.785 10.9601Z" fill="#69D7F9"/>
<path d="M44.7851 14.665V38.875C44.7851 39.5381 44.5217 40.174 44.0528 40.6428C43.584 41.1116 42.9481 41.375 42.2851 41.375H42.0551V14.665H44.7851Z" fill="#69D7F9"/>
<path d="M44.785 10.9601V12.9601H5.22004V11.0001C5.21938 10.6315 5.29148 10.2665 5.43221 9.92587C5.57294 9.58525 5.77953 9.27577 6.04013 9.01517C6.30073 8.75457 6.61022 8.54798 6.95083 8.40725C7.29145 8.26652 7.65649 8.19441 8.02504 8.19507H42C42.7336 8.20023 43.436 8.49257 43.9566 9.00943C44.4772 9.5263 44.7746 10.2265 44.785 10.9601Z" stroke="#0023EF" stroke-miterlimit="10"/>
<path d="M44.785 14.665V38.875C44.785 39.5381 44.5216 40.174 44.0528 40.6428C43.584 41.1116 42.9481 41.375 42.285 41.375H7.71503C7.05199 41.375 6.4161 41.1116 5.94726 40.6428C5.47842 40.174 5.21503 39.5381 5.21503 38.875V14.665H44.785Z" stroke="#0023EF" stroke-miterlimit="10"/>
<path d="M7.17505 10.6951H9.37505" stroke="#0023EF" stroke-miterlimit="10"/>
<path d="M10.225 10.6951H12.425" stroke="#0023EF" stroke-miterlimit="10"/>
<path d="M13.275 10.6951H15.475" stroke="#0023EF" stroke-miterlimit="10"/>
<path d="M40.165 24.5151H42.06V41.4551H40.165" stroke="#0023EF" stroke-miterlimit="10"/>
<path d="M16 24.5151H7.94501V27.9051H16V24.5151Z" stroke="#0023EF" stroke-miterlimit="10"/>
<path d="M24.055 24.5151H16V27.9051H24.055V24.5151Z" stroke="#0023EF" stroke-miterlimit="10"/>
<path d="M32.1101 24.5151H24.0551V27.9051H32.1101V24.5151Z" stroke="#0023EF" stroke-miterlimit="10"/>
<path d="M40.165 24.5151H32.11V27.9051H40.165V24.5151Z" stroke="#0023EF" stroke-miterlimit="10"/>
<path d="M16 31.29H7.94501V34.68H16V31.29Z" stroke="#0023EF" stroke-miterlimit="10"/>
<path d="M24.055 31.29H16V34.68H24.055V31.29Z" stroke="#0023EF" stroke-miterlimit="10"/>
<path d="M32.1101 31.29H24.0551V34.68H32.1101V31.29Z" stroke="#0023EF" stroke-miterlimit="10"/>
<path d="M40.165 31.29H32.11V34.68H40.165V31.29Z" stroke="#0023EF" stroke-miterlimit="10"/>
<path d="M11.97 27.9001H7.94501V31.2901H11.97V27.9001Z" stroke="#0023EF" stroke-miterlimit="10"/>
<path d="M40.16 27.9001H36.135V31.2901H40.16V27.9001Z" stroke="#0023EF" stroke-miterlimit="10"/>
<path d="M20.025 27.9001H11.97V31.2901H20.025V27.9001Z" stroke="#0023EF" stroke-miterlimit="10"/>
<path d="M28.08 27.9001H20.025V31.2901H28.08V27.9001Z" stroke="#0023EF" stroke-miterlimit="10"/>
<path d="M36.135 27.9001H28.08V31.2901H36.135V27.9001Z" stroke="#0023EF" stroke-miterlimit="10"/>
<path d="M16 38.0701H7.94501V41.4601H16V38.0701Z" stroke="#0023EF" stroke-miterlimit="10"/>
<path d="M24.055 38.0701H16V41.4601H24.055V38.0701Z" stroke="#0023EF" stroke-miterlimit="10"/>
<path d="M32.1101 38.0701H24.0551V41.4601H32.1101V38.0701Z" stroke="#0023EF" stroke-miterlimit="10"/>
<path d="M40.165 38.0701H32.11V41.4601H40.165V38.0701Z" stroke="#0023EF" stroke-miterlimit="10"/>
<path d="M11.97 34.6802H7.94501V38.0702H11.97V34.6802Z" stroke="#0023EF" stroke-miterlimit="10"/>
<path d="M40.16 34.6802H36.135V38.0702H40.16V34.6802Z" stroke="#0023EF" stroke-miterlimit="10"/>
<path d="M20.025 34.6802H11.97V38.0702H20.025V34.6802Z" stroke="#0023EF" stroke-miterlimit="10"/>
<path d="M28.08 34.6802H20.025V38.0702H28.08V34.6802Z" stroke="#0023EF" stroke-miterlimit="10"/>
<path d="M36.135 34.6802H28.08V38.0702H36.135V34.6802Z" stroke="#0023EF" stroke-miterlimit="10"/>
<path d="M40.165 24.5151H40.95" stroke="#0023EF" stroke-miterlimit="10"/>
</svg>
