<svg width="614" height="366" viewBox="0 0 614 366" fill="none" xmlns="http://www.w3.org/2000/svg">
<path d="M4 347.708L30.5956 333.674L56.7163 308.739L82.837 296.348L109.433 320.928L135.553 315.466L162.149 308.739L188.745 269.158H214.865L241.461 281.782L267.582 300.9L294.177 287.244L320.298 226.25L346.893 214.415L373.014 231.717L399.135 238.084L425.73 226.25L451.851 250.83L478.447 254.471L504.567 269.158L531.163 293.617L557.284 281.782L583.879 243.547L610 168" stroke="#A5B4FC" stroke-width="2" stroke-linecap="round" stroke-linejoin="round"/>
<path d="M4 347.708L30.5956 333.674L56.7163 308.739L82.837 296.348L109.433 320.928L135.553 315.466L162.149 308.739L188.745 269.158H214.865L241.461 281.782L267.582 300.9L294.177 287.244L320.298 226.249L346.893 214.415L373.014 231.717L399.135 238.084L425.73 226.249L451.851 250.83L478.447 254.471L504.567 269.158L531.163 293.617L557.284 281.782L583.879 243.547L610 168" stroke="#A5B4FC" stroke-width="8" stroke-linecap="round" stroke-linejoin="round" stroke-dasharray="0.01 50"/>
<path d="M4 347.708L30.5956 333.674L56.7163 308.739L82.837 296.348L109.433 320.928L135.553 315.466L162.149 308.739L188.745 269.158H214.865L241.461 281.782L267.582 300.9L294.177 287.244L320.298 226.249L346.893 214.415L373.014 231.717L399.135 238.084L425.73 226.249L451.851 250.83L478.447 254.471L504.567 269.158L531.163 293.617L557.284 281.782L583.879 243.547L610 168" stroke="#0F172A" stroke-width="6" stroke-linecap="round" stroke-linejoin="round" stroke-dasharray="0.01 50"/>
<path d="M4 361.708L30.5956 270.306L56.7163 234.965L82.837 189.527L109.433 194.576L135.553 174.381L162.149 194.576L188.745 174.381L214.865 184.479H241.461L267.581 202.149H294.177L320.298 174.381L346.893 152.931L373.014 139.04H399.135L425.73 123.894L451.851 107.486L478.447 123.894L504.567 152.931L531.163 212.246L557.284 207.198L581.017 154.905L595.509 94.8642L610 4.00781" stroke="#6366F1" stroke-width="2" stroke-linecap="round" stroke-linejoin="round"/>
<path d="M4 361.708L30.5956 270.306L56.7163 234.965L82.837 189.527L109.433 194.576L135.553 174.381L162.149 194.576L188.745 174.381L214.865 184.479H241.461L267.581 202.149H294.177L320.298 174.381L346.893 152.931L373.014 139.04H399.135L425.73 123.894L451.851 107.486L478.447 123.894L504.567 152.931L531.163 212.246L557.284 207.198L581.017 154.905L595.509 94.8642L610 4.00781" stroke="#6366F1" stroke-width="8" stroke-linecap="round" stroke-linejoin="round" stroke-dasharray="0.01 50"/>
<path d="M4 361.708L30.5956 270.306L56.7163 234.965L82.837 189.527L109.433 194.576L135.553 174.381L162.149 194.576L188.745 174.381L214.865 184.479H241.461L267.581 202.149H294.177L320.298 174.381L346.893 152.931L373.014 139.04H399.135L425.73 123.894L451.851 107.486L478.447 123.894L504.567 152.931L531.163 212.246L557.284 207.198L581.017 154.905L595.509 94.8642L610 4.00781" stroke="#0F172A" stroke-width="6" stroke-linecap="round" stroke-linejoin="round" stroke-dasharray="0.01 50"/>
</svg>
