<svg width="48" height="48" viewBox="0 0 48 48" fill="none" xmlns="http://www.w3.org/2000/svg">
<path d="M11.3837 13.9458H9.5213V32.878H11.3837V13.9458Z" fill="#3FE2FD"/>
<path d="M7.16834 8.99902C6.93654 8.9989 6.70699 9.04444 6.49281 9.13306C6.27862 9.22168 6.08399 9.35163 5.92004 9.51549C5.75609 9.67935 5.62604 9.87391 5.5373 10.088C5.44857 10.3022 5.4029 10.5317 5.4029 10.7635V35.9606H4.4381C3.95002 35.9606 3.48192 36.1545 3.1368 36.4996C2.79167 36.8448 2.59778 37.3129 2.59778 37.8009V39.0777C2.59778 39.6274 2.81615 40.1546 3.20484 40.5433C3.59354 40.932 4.12072 41.1504 4.67042 41.1504H5.4029V41.4902H7.16834V8.99902Z" fill="#3FE2FD"/>
<path d="M29.713 35.9971H18.6835V39.0672H29.713V35.9971Z" fill="#3FE2FD"/>
<path d="M24.0519 26.7562C26.0666 26.7562 27.6999 25.1229 27.6999 23.1082C27.6999 21.0935 26.0666 19.4602 24.0519 19.4602C22.0371 19.4602 20.4039 21.0935 20.4039 23.1082C20.4039 25.1229 22.0371 26.7562 24.0519 26.7562Z" fill="#3FE2FD"/>
<path d="M41.856 42.2399H6.39743C5.26576 42.2389 4.18073 41.7889 3.38051 40.9887C2.5803 40.1884 2.13029 39.1034 2.12927 37.9717V37.8239C2.13003 37.1061 2.4155 36.418 2.92304 35.9105C3.43057 35.4029 4.11871 35.1175 4.83647 35.1167H43.4141C44.1318 35.1175 44.82 35.4029 45.3275 35.9105C45.835 36.418 46.1205 37.1061 46.1213 37.8239V37.9689C46.121 39.1005 45.6717 40.1859 44.8721 40.9866C44.0724 41.7874 42.9877 42.2381 41.856 42.2399ZM4.83647 36.4626C4.47542 36.4631 4.12927 36.6066 3.87378 36.8618C3.6183 37.1169 3.47429 37.4628 3.47327 37.8239V37.9689C3.47327 38.7447 3.78126 39.4887 4.32956 40.0376C4.87787 40.5864 5.62163 40.8951 6.39743 40.8959H41.856C42.6311 40.8949 43.3742 40.5864 43.9222 40.0383C44.4702 39.4901 44.7784 38.7469 44.7792 37.9717V37.8239C44.7787 37.4625 44.6349 37.1161 44.3794 36.8605C44.1238 36.605 43.7774 36.4612 43.416 36.4607L4.83647 36.4626Z" fill="#0023EF"/>
<path d="M42.2909 36.4627H5.74945C5.57123 36.4627 5.4003 36.3919 5.27428 36.2659C5.14825 36.1398 5.07745 35.9689 5.07745 35.7907V11.3693C5.07898 10.6583 5.36206 9.97699 5.86474 9.4743C6.36743 8.97161 7.04879 8.68853 7.75969 8.68701H40.2807C40.9916 8.68853 41.6729 8.97161 42.1756 9.4743C42.6783 9.97699 42.9614 10.6583 42.9629 11.3693V35.7907C42.9629 35.9689 42.8921 36.1398 42.7661 36.2659C42.64 36.3919 42.4691 36.4627 42.2909 36.4627ZM6.42145 35.1187H41.6189V11.3693C41.6174 11.0148 41.4759 10.6753 41.2253 10.4246C40.9746 10.174 40.6351 10.0325 40.2807 10.031H7.75969C7.40524 10.0325 7.06573 10.174 6.81509 10.4246C6.56445 10.6753 6.42297 11.0148 6.42145 11.3693V35.1187Z" fill="#0023EF"/>
<path d="M38.3309 33.3858H9.6048C9.42657 33.3858 9.25565 33.315 9.12962 33.189C9.0036 33.063 8.9328 32.8921 8.9328 32.7138V13.5023C8.9328 13.3241 9.0036 13.1532 9.12962 13.0271C9.25565 12.9011 9.42657 12.8303 9.6048 12.8303H38.3309C38.5091 12.8303 38.68 12.9011 38.8061 13.0271C38.9321 13.1532 39.0029 13.3241 39.0029 13.5023V32.7138C39.0029 32.8921 38.9321 33.063 38.8061 33.189C38.68 33.315 38.5091 33.3858 38.3309 33.3858ZM10.2768 32.0418H37.6589V14.1743H10.2768V32.0418Z" fill="#0023EF"/>
<path d="M24 30.1786C22.6068 30.179 21.2448 29.7662 20.0862 28.9924C18.9276 28.2187 18.0245 27.1187 17.4911 25.8316C16.9578 24.5446 16.8181 23.1282 17.0897 21.7618C17.3613 20.3953 18.0321 19.1401 19.0172 18.1549C20.0023 17.1697 21.2574 16.4987 22.6238 16.2269C23.9902 15.9551 25.4066 16.0946 26.6937 16.6278C27.9808 17.161 29.0809 18.0639 29.8549 19.2224C30.6288 20.3809 31.0418 21.7428 31.0416 23.136C31.0393 25.003 30.2967 26.7928 28.9767 28.113C27.6566 29.4332 25.8669 30.1761 24 30.1786ZM24 17.4356C22.8727 17.4352 21.7706 17.7691 20.8331 18.3951C19.8956 19.0211 19.1647 19.9111 18.733 20.9524C18.3013 21.9938 18.1881 23.1398 18.4077 24.2455C18.6274 25.3512 19.1699 26.3669 19.9669 27.1642C20.7638 27.9615 21.7792 28.5046 22.8848 28.7248C23.9904 28.945 25.1365 28.8324 26.1781 28.4012C27.2196 27.97 28.11 27.2397 28.7364 26.3025C29.3629 25.3653 29.6974 24.2633 29.6976 23.136C29.6963 21.6251 29.0957 20.1763 28.0276 19.1076C26.9594 18.0389 25.5109 17.4376 24 17.4356Z" fill="#0023EF"/>
<path d="M24.2256 26.1455H23.904C23.4317 26.1448 22.9791 25.9568 22.6453 25.6228C22.3114 25.2888 22.1237 24.836 22.1232 24.3638C22.1232 24.1855 22.194 24.0146 22.32 23.8886C22.446 23.7626 22.6169 23.6918 22.7952 23.6918C22.9734 23.6918 23.1443 23.7626 23.2703 23.8886C23.3964 24.0146 23.4672 24.1855 23.4672 24.3638C23.4672 24.4797 23.5132 24.5909 23.595 24.673C23.6769 24.755 23.788 24.8013 23.904 24.8015H24.2275C24.3435 24.8013 24.4547 24.7551 24.5368 24.673C24.6188 24.591 24.665 24.4798 24.6652 24.3638V24.1564C24.665 24.0404 24.6188 23.9292 24.5368 23.8471C24.4547 23.7651 24.3435 23.7189 24.2275 23.7187H23.904C23.4318 23.7181 22.9792 23.5304 22.6453 23.1965C22.3115 22.8626 22.1237 22.41 22.1232 21.9379V21.7295C22.1237 21.2574 22.3115 20.8047 22.6453 20.4709C22.9792 20.137 23.4318 19.9492 23.904 19.9487H24.3436C24.8158 19.9492 25.2684 20.137 25.6023 20.4709C25.9362 20.8047 26.1239 21.2574 26.1244 21.7295V21.8687C26.1244 22.047 26.0536 22.2179 25.9276 22.3439C25.8016 22.4699 25.6307 22.5407 25.4524 22.5407C25.2742 22.5407 25.1033 22.4699 24.9773 22.3439C24.8513 22.2179 24.7804 22.047 24.7804 21.8687V21.7295C24.7804 21.6137 24.7344 21.5026 24.6525 21.4207C24.5706 21.3387 24.4595 21.2927 24.3436 21.2927H23.904C23.7881 21.2927 23.677 21.3387 23.5951 21.4207C23.5132 21.5026 23.4672 21.6137 23.4672 21.7295V21.9379C23.4672 21.9952 23.4785 22.052 23.5004 22.105C23.5224 22.158 23.5545 22.2062 23.5951 22.2467C23.6357 22.2873 23.6838 22.3194 23.7368 22.3414C23.7898 22.3634 23.8466 22.3747 23.904 22.3747H24.2275C24.6998 22.3754 25.1526 22.5634 25.4865 22.8974C25.8205 23.2313 26.0085 23.6841 26.0092 24.1564V24.3638C26.0085 24.8364 25.8203 25.2895 25.4859 25.6235C25.1515 25.9575 24.6982 26.1453 24.2256 26.1455Z" fill="#0023EF"/>
<path d="M24.1219 21.2927C23.9437 21.2927 23.7727 21.2219 23.6467 21.0958C23.5207 20.9698 23.4499 20.7989 23.4499 20.6207V19.5839C23.4499 19.4056 23.5207 19.2347 23.6467 19.1087C23.7727 18.9827 23.9437 18.9119 24.1219 18.9119C24.3001 18.9119 24.471 18.9827 24.5971 19.1087C24.7231 19.2347 24.7939 19.4056 24.7939 19.5839V20.6207C24.7939 20.7989 24.7231 20.9698 24.5971 21.0958C24.471 21.2219 24.3001 21.2927 24.1219 21.2927Z" fill="#0023EF"/>
<path d="M24.1219 27.1852C23.9437 27.1852 23.7727 27.1144 23.6467 26.9884C23.5207 26.8624 23.4499 26.6914 23.4499 26.5132V25.9276C23.4499 25.7494 23.5207 25.5785 23.6467 25.4524C23.7727 25.3264 23.9437 25.2556 24.1219 25.2556C24.3001 25.2556 24.471 25.3264 24.5971 25.4524C24.7231 25.5785 24.7939 25.7494 24.7939 25.9276V26.5132C24.7939 26.6914 24.7231 26.8624 24.5971 26.9884C24.471 27.1144 24.3001 27.1852 24.1219 27.1852Z" fill="#0023EF"/>
</svg>
