<svg width="120" height="120" viewBox="0 0 120 120" fill="none" xmlns="http://www.w3.org/2000/svg">
<path d="M37.2625 25.5888L60.0001 13.5336L83.1744 26.9352C83.1744 26.9352 73.2913 32.1096 74.0137 32.9352C74.7361 33.7608 73.2937 48.1512 73.2937 48.1512C73.2937 48.1512 57.3025 53.256 46.2721 48.1512L45.5353 32.088L37.2625 25.5888Z" fill="#3FE2FD"/>
<path d="M83.5609 42.6288C85.6299 42.6288 87.3073 40.9515 87.3073 38.8824C87.3073 36.8133 85.6299 35.136 83.5609 35.136C81.4918 35.136 79.8145 36.8133 79.8145 38.8824C79.8145 40.9515 81.4918 42.6288 83.5609 42.6288Z" fill="#3FE2FD"/>
<path d="M19.1088 87.4151C22.1184 91.6151 28.4688 91.0919 30.8328 86.4983C33.3384 81.6335 37.3656 76.6463 43.7448 74.4983C58.0344 69.6983 73.2912 76.2527 73.2912 76.2527L81.4944 76.1039L95.352 65.3711V62.2895L89.652 59.5463L84.852 62.2895V58.9295L79.812 55.9127L67.9584 68.2727L39.1584 69.9527L19.1088 87.4151Z" fill="#3FE2FD"/>
<path d="M73.476 75.7728C73.1379 75.7728 72.8076 75.6707 72.5284 75.4799C72.2492 75.2891 72.0341 75.0185 71.9112 74.7034C71.7883 74.3884 71.7633 74.0436 71.8395 73.7141C71.9158 73.3847 72.0896 73.0859 72.3384 72.8568L83.28 62.7888C83.7807 62.3277 84.0776 61.6865 84.1055 61.0065C84.1334 60.3264 83.89 59.6631 83.4288 59.1624C82.9677 58.6618 82.3265 58.3649 81.6465 58.337C80.9664 58.3091 80.3031 58.5525 79.8024 59.0136L67.3656 70.4352C67.2037 70.5873 67.0131 70.7057 66.8051 70.7836C66.5971 70.8615 66.3756 70.8974 66.1536 70.8892C65.9316 70.881 65.7135 70.8288 65.5118 70.7357C65.3101 70.6426 65.1288 70.5104 64.9786 70.3468C64.8283 70.1832 64.7119 69.9914 64.6363 69.7826C64.5606 69.5737 64.5271 69.3519 64.5378 69.13C64.5484 68.9081 64.6029 68.6905 64.6982 68.4898C64.7935 68.2891 64.9276 68.1093 65.0928 67.9608L77.52 56.5392C78.6822 55.5092 80.2021 54.9763 81.753 55.0551C83.3039 55.134 84.7619 55.8182 85.8136 56.9608C86.8653 58.1033 87.4267 59.613 87.377 61.1651C87.3274 62.7172 86.6706 64.1879 85.548 65.2608L74.6112 75.3288C74.3018 75.6137 73.8967 75.7722 73.476 75.7728Z" fill="#251AC7"/>
<path d="M83.0088 78.516C82.6705 78.5164 82.3398 78.4147 82.0603 78.224C81.7807 78.0334 81.5652 77.7628 81.442 77.4477C81.3188 77.1325 81.2936 76.7875 81.3698 76.4579C81.4459 76.1282 81.6199 75.8292 81.8688 75.6L92.4792 65.832C92.7277 65.604 92.9288 65.3292 93.071 65.0234C93.2132 64.7175 93.2937 64.3867 93.3079 64.0497C93.3221 63.7128 93.2697 63.3763 93.1538 63.0596C93.0378 62.7429 92.8606 62.4522 92.6322 62.2041C92.4038 61.956 92.1287 61.7553 91.8226 61.6136C91.5166 61.4719 91.1856 61.3919 90.8486 61.3782C90.5117 61.3645 90.1753 61.4174 89.8588 61.5338C89.5423 61.6503 89.2518 61.828 89.004 62.0568L74.0016 75.8664C73.8393 76.0159 73.6491 76.132 73.442 76.2081C73.2348 76.2841 73.0146 76.3186 72.7941 76.3096C72.5736 76.3006 72.357 76.2482 72.1567 76.1555C71.9564 76.0628 71.7764 75.9315 71.6268 75.7692C71.4773 75.6069 71.3612 75.4167 71.2851 75.2095C71.2091 75.0023 71.1746 74.7822 71.1836 74.5616C71.1926 74.3411 71.245 74.1245 71.3377 73.9243C71.4305 73.724 71.5617 73.5439 71.724 73.3944L86.7288 59.5848C87.3013 59.0577 87.9721 58.6485 88.7027 58.3805C89.4334 58.1126 90.2096 57.9913 90.9872 58.0234C91.7648 58.0554 92.5284 58.2404 93.2345 58.5676C93.9406 58.8948 94.5753 59.3579 95.1024 59.9304C95.6296 60.5029 96.0388 61.1736 96.3067 61.9043C96.5746 62.6349 96.696 63.4112 96.6639 64.1888C96.6318 64.9663 96.4468 65.7299 96.1196 66.436C95.7924 67.1421 95.3293 67.7769 94.7568 68.304L84.1464 78.072C83.8363 78.3574 83.4303 78.5159 83.0088 78.516Z" fill="#251AC7"/>
<path d="M34.236 114.209C33.9037 114.21 33.5784 114.113 33.3013 113.93C33.0242 113.746 32.8077 113.485 32.6792 113.178C32.5508 112.872 32.5161 112.534 32.5796 112.208C32.6431 111.882 32.8019 111.582 33.036 111.346L43.4832 100.824C52.4568 91.7856 61.524 90.5664 73.0032 89.0256L75.0648 88.7472C78.6944 88.2529 82.0848 86.6562 84.7776 84.1728L101.482 68.7912C101.714 68.5825 101.904 68.3298 102.038 68.0478C102.173 67.7657 102.251 67.4598 102.267 67.1476C102.284 66.8354 102.238 66.523 102.133 66.2285C102.029 65.9339 101.867 65.663 101.657 65.4312C101.628 65.4 101.599 65.3688 101.566 65.3376C101.055 64.8391 100.374 64.5535 99.6613 64.5388C98.9481 64.5241 98.256 64.7814 97.7256 65.2584L83.28 78.5664C82.9831 78.8389 82.5981 78.9957 82.1952 79.008L72.3912 79.3128C72.103 79.3226 71.8172 79.258 71.5612 79.1253C71.3052 78.9927 71.0877 78.7963 70.9295 78.5552C70.7714 78.3142 70.6779 78.0364 70.6582 77.7488C70.6384 77.4611 70.6931 77.1732 70.8168 76.9128C71.1159 76.2651 71.2473 75.5526 71.1989 74.8408C71.1505 74.129 70.9237 73.4409 70.5396 72.8397C70.1555 72.2385 69.6263 71.7437 69.0007 71.4006C68.3752 71.0576 67.6734 70.8775 66.96 70.8768H42.24C37.524 70.8768 32.3784 76.4616 27.84 81.3864C25.5912 83.8272 23.4672 86.1312 21.4608 87.7032C21.1091 87.9562 20.6732 88.0635 20.2442 88.0027C19.8152 87.9419 19.4263 87.7178 19.1587 87.377C18.8911 87.0363 18.7654 86.6054 18.808 86.1742C18.8506 85.743 19.0581 85.345 19.3872 85.0632C21.18 83.6592 23.2272 81.4512 25.368 79.116C30.384 73.68 36.06 67.5168 42.24 67.5168H66.96C68.9791 67.5187 70.915 68.3216 72.3427 69.7493C73.7704 71.177 74.5733 73.1129 74.5752 75.132C74.5752 75.372 74.5632 75.6336 74.5392 75.8832L81.468 75.6696L95.4792 62.772C96.6447 61.7193 98.1673 61.1501 99.7374 61.18C101.308 61.2098 102.807 61.8366 103.932 62.9328C104.009 63.0096 104.086 63.0888 104.16 63.1728C104.666 63.7314 105.058 64.3843 105.312 65.0944C105.565 65.8044 105.677 66.5575 105.639 67.3105C105.601 68.0636 105.415 68.8018 105.092 69.4829C104.769 70.1641 104.314 70.7747 103.754 71.28L87.0576 86.64C83.8612 89.5897 79.8355 91.4857 75.5256 92.0712L73.4568 92.3496C62.1768 93.864 54.0432 94.9584 45.8736 103.186L35.4288 113.712C35.2726 113.869 35.0868 113.994 34.8821 114.08C34.6774 114.165 34.4578 114.209 34.236 114.209Z" fill="#251AC7"/>
<path d="M52.02 81.3337C51.5744 81.3553 51.1385 81.1991 50.8082 80.8993C50.4778 80.5996 50.28 80.1808 50.2584 79.7353C50.2367 79.2897 50.393 78.8538 50.6928 78.5234C50.9925 78.1931 51.4112 77.9953 51.8568 77.9737L72.1656 75.9529C72.6092 75.9086 73.0523 76.0425 73.3973 76.3249C73.7423 76.6073 73.961 77.0152 74.0052 77.4589C74.0494 77.9025 73.9156 78.3456 73.6332 78.6906C73.3508 79.0356 72.9428 79.2542 72.4992 79.2985L52.1904 81.3169C52.1328 81.3289 52.08 81.3337 52.02 81.3337Z" fill="#251AC7"/>
<path d="M59.4888 42.2904C59.1942 42.2903 58.9047 42.2134 58.6488 42.0672L34.9632 28.3872C34.7081 28.2397 34.4962 28.0277 34.349 27.7724C34.2017 27.5171 34.1241 27.2276 34.1241 26.9328C34.1241 26.6381 34.2017 26.3486 34.349 26.0933C34.4962 25.838 34.7081 25.626 34.9632 25.4784L58.6488 11.7984C58.9042 11.651 59.1939 11.5734 59.4888 11.5734C59.7837 11.5734 60.0734 11.651 60.3288 11.7984L84.0144 25.4784C84.2696 25.626 84.4814 25.838 84.6287 26.0933C84.776 26.3486 84.8535 26.6381 84.8535 26.9328C84.8535 27.2276 84.776 27.5171 84.6287 27.7724C84.4814 28.0277 84.2696 28.2397 84.0144 28.3872L60.3288 42.0672C60.0733 42.214 59.7836 42.291 59.4888 42.2904ZM39.1632 26.9304L59.4888 38.6664L79.8144 26.9304L59.4888 15.1944L39.1632 26.9304Z" fill="#251AC7"/>
<path d="M59.628 52.5097C55.6334 52.5114 51.6683 51.8254 47.9064 50.4817L44.8584 49.3921C44.5321 49.2752 44.2498 49.0602 44.0505 48.7766C43.8511 48.493 43.7443 48.1547 43.7448 47.8081V32.4913C43.7448 32.0457 43.9218 31.6184 44.2369 31.3033C44.5519 30.9883 44.9793 30.8113 45.4248 30.8113C45.8704 30.8113 46.2977 30.9883 46.6128 31.3033C46.9278 31.6184 47.1048 32.0457 47.1048 32.4913V46.6249L49.0392 47.3185C55.8073 49.7329 63.1973 49.7617 69.984 47.4001L72.228 46.6153V32.2849C72.228 31.8393 72.405 31.412 72.7201 31.0969C73.0351 30.7819 73.4625 30.6049 73.908 30.6049C74.3536 30.6049 74.7809 30.7819 75.096 31.0969C75.411 31.412 75.588 31.8393 75.588 32.2849V47.8081C75.5881 48.1566 75.4798 48.4965 75.2782 48.7807C75.0765 49.065 74.7914 49.2794 74.4624 49.3945L71.0904 50.5729C67.4052 51.8566 63.5304 52.5113 59.628 52.5097Z" fill="#251AC7"/>
<path d="M83.1744 38.9088C82.7288 38.9088 82.3015 38.7318 81.9864 38.4168C81.6714 38.1017 81.4944 37.6744 81.4944 37.2288V26.9352C81.4944 26.4897 81.6714 26.0624 81.9864 25.7473C82.3015 25.4322 82.7288 25.2552 83.1744 25.2552C83.6199 25.2552 84.0473 25.4322 84.3623 25.7473C84.6774 26.0624 84.8544 26.4897 84.8544 26.9352V37.2288C84.8544 37.6744 84.6774 38.1017 84.3623 38.4168C84.0473 38.7318 83.6199 38.9088 83.1744 38.9088Z" fill="#251AC7"/>
</svg>
