<svg width="101" height="100" viewBox="0 0 101 100" fill="none" xmlns="http://www.w3.org/2000/svg">
<path d="M73.6754 33.314H63.0894V76.786H73.6754V33.314Z" fill="#EFD700"/>
<path d="M17.7654 78.138C17.7654 78.5093 17.9129 78.8654 18.1754 79.1279C18.438 79.3905 18.7941 79.538 19.1654 79.538H79.9834C80.3547 79.538 80.7108 79.3905 80.9733 79.1279C81.2359 78.8654 81.3834 78.5093 81.3834 78.138C81.3834 77.7667 81.2359 77.4106 80.9733 77.1481C80.7108 76.8855 80.3547 76.738 79.9834 76.738H75.3014V32.762C75.3014 32.3907 75.1539 32.0346 74.8913 31.7721C74.6288 31.5095 74.2727 31.362 73.9014 31.362H63.9914C63.6201 31.362 63.264 31.5095 63.0014 31.7721C62.7389 32.0346 62.5914 32.3907 62.5914 32.762V76.738H55.7054V45.578C55.7054 45.2067 55.5579 44.8506 55.2953 44.588C55.0328 44.3255 54.6767 44.178 54.3054 44.178H44.3934C44.0221 44.178 43.666 44.3255 43.4034 44.588C43.1409 44.8506 42.9934 45.2067 42.9934 45.578V76.738H37.9114V59.216C37.9114 58.8447 37.7639 58.4886 37.5013 58.226C37.2388 57.9635 36.8827 57.816 36.5114 57.816H26.5994C26.2281 57.816 25.872 57.9635 25.6094 58.226C25.3469 58.4886 25.1994 58.8447 25.1994 59.216V76.738H19.1654C18.7941 76.738 18.438 76.8855 18.1754 77.1481C17.9129 77.4106 17.7654 77.7667 17.7654 78.138ZM65.3914 34.162H72.5014V76.288H65.3914V34.162ZM45.7914 46.978H52.9034V76.288H45.7934L45.7914 46.978ZM27.9914 60.616H35.1034V76.288H27.9994L27.9914 60.616Z" fill="white"/>
<path d="M30.4534 46.876C30.8247 46.876 31.1808 46.7285 31.4433 46.466C31.7059 46.2034 31.8534 45.8473 31.8534 45.476V37.2L33.5114 39.528C33.7287 39.8248 34.0542 40.0241 34.4173 40.0828C34.7804 40.1415 35.1521 40.055 35.4519 39.8419C35.7517 39.6288 35.9556 39.3062 36.0195 38.944C36.0834 38.5817 36.0022 38.2089 35.7934 37.906L31.6254 32.048C31.4963 31.8668 31.326 31.7189 31.1284 31.6167C30.9309 31.5144 30.7118 31.4607 30.4894 31.46C30.2674 31.46 30.0487 31.5128 29.8512 31.614C29.6537 31.7152 29.483 31.8619 29.3534 32.042L25.2994 37.674C25.0886 37.9756 25.0049 38.348 25.0665 38.7107C25.1282 39.0734 25.3301 39.3973 25.6287 39.6123C25.9273 39.8273 26.2985 39.9161 26.662 39.8596C27.0256 39.803 27.3522 39.6056 27.5714 39.31L29.0574 37.244V45.474C29.0568 45.845 29.2036 46.201 29.4653 46.4639C29.727 46.7267 30.0824 46.875 30.4534 46.876Z" fill="white"/>
</svg>
