<svg width="50" height="50" viewBox="0 0 50 50" fill="none" xmlns="http://www.w3.org/2000/svg">
<path d="M6.74597 10.6669C6.74597 10.6669 9.60497 4.59891 9.91197 5.05691C10.219 5.51491 13.537 10.9799 13.537 10.9799C13.537 10.9799 11.495 10.7249 11.495 10.9799C11.495 11.2349 11.546 15.1169 11.546 15.1169L8.58397 15.6269L7.86897 11.2359L6.74597 10.6669Z" fill="#3FE2FD"/>
<path d="M37.123 10.6678C37.123 10.6678 39.982 4.59784 40.289 5.05784C40.596 5.51784 43.914 10.9808 43.914 10.9808C43.914 10.9808 41.871 10.7258 41.871 10.9808C41.871 11.2358 41.923 15.1178 41.923 15.1178L38.961 15.6278L38.246 11.2368L37.123 10.6678Z" fill="#3FE2FD"/>
<path d="M6.74597 37.8339C6.74597 37.8339 9.60497 31.7639 9.91197 32.2239C10.219 32.6839 13.537 38.1469 13.537 38.1469C13.537 38.1469 11.495 37.8919 11.495 38.1469C11.495 38.4019 11.546 42.2839 11.546 42.2839L8.58397 42.7939L7.86897 38.3999L6.74597 37.8339Z" fill="#3FE2FD"/>
<path d="M37.123 37.8339C37.123 37.8339 39.982 31.7639 40.289 32.2239C40.596 32.6839 43.914 38.1469 43.914 38.1469C43.914 38.1469 41.871 37.8919 41.871 38.1469C41.871 38.4019 41.923 42.2839 41.923 42.2839L38.961 42.7939L38.246 38.3999L37.123 37.8339Z" fill="#3FE2FD"/>
<path d="M24.958 5.03289C24.958 5.03289 22.167 7.04989 23.137 10.0619C24.107 13.0739 25.337 14.9619 24.567 16.9049C23.797 18.8479 19.8 16.7999 20.8 22.2669V33.5999C20.8 33.5999 18.753 34.0379 18.237 31.4189C17.721 28.7999 15.529 16.1479 21.248 16.1999H22.473L22.882 14.0999C22.882 14.0999 21.361 12.3639 21.182 10.0659C21.003 7.76789 22.438 4.90589 24.958 5.03289Z" fill="#3FE2FD"/>
<path d="M25.51 30.5898C25.842 30.5898 26.1605 30.7218 26.3953 30.9565C26.6301 31.1913 26.762 31.5098 26.762 31.8418V45.1938H24.262V31.8418C24.262 31.5105 24.3933 31.1926 24.6273 30.958C24.8612 30.7233 25.1786 30.5909 25.51 30.5898Z" fill="#3FE2FD"/>
<path d="M20.8 34.1331C20.6144 34.1331 20.4363 34.0593 20.3051 33.928C20.1738 33.7968 20.1 33.6187 20.1 33.4331V22.3331C20.1 22.1474 20.1738 21.9694 20.3051 21.8381C20.4363 21.7068 20.6144 21.6331 20.8 21.6331C20.9857 21.6331 21.1637 21.7068 21.295 21.8381C21.4263 21.9694 21.5 22.1474 21.5 22.3331V33.4331C21.5 33.6187 21.4263 33.7968 21.295 33.928C21.1637 34.0593 20.9857 34.1331 20.8 34.1331Z" fill="#0023EF"/>
<path d="M29.127 34.1331C28.9414 34.1331 28.7633 34.0593 28.632 33.928C28.5008 33.7968 28.427 33.6187 28.427 33.4331V22.3331C28.427 22.1474 28.5008 21.9694 28.632 21.8381C28.7633 21.7068 28.9414 21.6331 29.127 21.6331C29.3127 21.6331 29.4907 21.7068 29.622 21.8381C29.7533 21.9694 29.827 22.1474 29.827 22.3331V33.4331C29.827 33.6187 29.7533 33.7968 29.622 33.928C29.4907 34.0593 29.3127 34.1331 29.127 34.1331Z" fill="#0023EF"/>
<path d="M24.958 46.0609C24.7723 46.0609 24.5943 45.9871 24.463 45.8558C24.3317 45.7246 24.258 45.5465 24.258 45.3609V32.1219C24.258 31.9362 24.3317 31.7582 24.463 31.6269C24.5943 31.4956 24.7723 31.4219 24.958 31.4219C25.1436 31.4219 25.3217 31.4956 25.453 31.6269C25.5842 31.7582 25.658 31.9362 25.658 32.1219V45.3609C25.658 45.4528 25.6399 45.5438 25.6047 45.6288C25.5695 45.7137 25.518 45.7908 25.453 45.8558C25.388 45.9209 25.3108 45.9724 25.2259 46.0076C25.1409 46.0428 25.0499 46.0609 24.958 46.0609Z" fill="#0023EF"/>
<path d="M27.624 46.061H22.291C21.7103 46.0612 21.1534 45.8309 20.7425 45.4206C20.3316 45.0103 20.1005 44.4536 20.1 43.873V34.114C19.3586 34.0313 18.6711 33.6865 18.1614 33.1418C17.6517 32.5971 17.3533 31.8882 17.32 31.143L16.842 20.743C16.8112 20.0599 16.9192 19.3776 17.1596 18.7374C17.3999 18.0972 17.7676 17.5125 18.2404 17.0184C18.7132 16.5244 19.2813 16.1314 19.9103 15.8632C20.5393 15.595 21.2162 15.4571 21.9 15.458H22.2V14.364C21.676 13.764 20.383 12.15 20.383 10.738V8.51297C20.383 7.29987 20.8649 6.13645 21.7227 5.27866C22.5805 4.42087 23.7439 3.93896 24.957 3.93896C26.1701 3.93896 27.3335 4.42087 28.1913 5.27866C29.0491 6.13645 29.531 7.29987 29.531 8.51297V10.738C29.531 12.15 28.239 13.765 27.714 14.364V15.458H27.771C28.503 15.4578 29.2273 15.6069 29.8997 15.8961C30.5721 16.1853 31.1786 16.6085 31.682 17.1398C32.1854 17.6712 32.5752 18.2996 32.8276 18.9867C33.08 19.6738 33.1897 20.4051 33.15 21.136L32.608 31.168C32.5679 31.9119 32.264 32.6171 31.7508 33.1572C31.2377 33.6973 30.5489 34.0369 29.808 34.115V43.873C29.8075 44.4524 29.5773 45.008 29.168 45.4181C28.7586 45.8282 28.2034 46.0594 27.624 46.061ZM21.9 16.858C21.4056 16.8578 20.9163 16.958 20.4617 17.1524C20.0071 17.3468 19.5966 17.6314 19.2551 17.9889C18.9137 18.3465 18.6483 18.7696 18.475 19.2326C18.3017 19.6957 18.2241 20.1891 18.247 20.683L18.725 31.083C18.7448 31.5288 18.9361 31.9497 19.2588 32.2578C19.5815 32.566 20.0108 32.7377 20.457 32.737H20.8C20.9856 32.737 21.1637 32.8107 21.295 32.942C21.4262 33.0733 21.5 33.2513 21.5 33.437V43.877C21.5003 44.0857 21.5832 44.2858 21.7307 44.4335C21.8782 44.5812 22.0783 44.6645 22.287 44.665H27.62C27.8289 44.6647 28.0292 44.5816 28.1769 44.4339C28.3246 44.2862 28.4077 44.0859 28.408 43.877V33.433C28.408 33.2473 28.4817 33.0693 28.613 32.938C28.7443 32.8067 28.9223 32.733 29.108 32.733H29.476C29.9197 32.7328 30.3465 32.5626 30.6685 32.2574C30.9905 31.9521 31.1832 31.535 31.207 31.092L31.749 21.06C31.7779 20.5193 31.6964 19.9783 31.5094 19.4701C31.3224 18.962 31.0339 18.4972 30.6614 18.1042C30.2889 17.7112 29.8402 17.3982 29.3427 17.1843C28.8453 16.9704 28.3095 16.86 27.768 16.86H27.34C27.0671 16.8594 26.8055 16.7507 26.6126 16.5576C26.4197 16.3646 26.3113 16.1029 26.311 15.83V14.23C26.311 14.213 26.311 14.196 26.311 14.178V14.144C26.3049 14.0479 26.3188 13.9516 26.3516 13.8611C26.3845 13.7705 26.4357 13.6878 26.502 13.618C27.133 12.951 28.134 11.579 28.134 10.737V8.51297C28.134 7.67117 27.7996 6.86385 27.2044 6.26861C26.6091 5.67337 25.8018 5.33897 24.96 5.33897C24.1182 5.33897 23.3109 5.67337 22.7156 6.26861C22.1204 6.86385 21.786 7.67117 21.786 8.51297V10.738C21.786 11.58 22.786 12.952 23.418 13.62C23.4842 13.6897 23.5353 13.7723 23.5681 13.8626C23.601 13.9529 23.6149 14.049 23.609 14.145V14.178C23.609 14.195 23.609 14.213 23.609 14.231V15.813C23.6093 15.9499 23.5825 16.0856 23.5304 16.2123C23.4782 16.3389 23.4016 16.454 23.3049 16.5511C23.2083 16.6481 23.0934 16.7252 22.967 16.7778C22.8405 16.8305 22.705 16.8577 22.568 16.858H21.9Z" fill="#0023EF"/>
<path d="M11.491 16.1998H8.33302C8.14736 16.1998 7.96932 16.1261 7.83804 15.9948C7.70676 15.8635 7.63302 15.6855 7.63302 15.4998V11.9438H6.38801C6.26516 11.9438 6.14447 11.9114 6.03809 11.85C5.93171 11.7885 5.84337 11.7002 5.78196 11.5938C5.72055 11.4873 5.68822 11.3666 5.68823 11.2438C5.68824 11.1209 5.72059 11.0002 5.78201 10.8938L9.30502 4.79385C9.36652 4.68732 9.45501 4.59888 9.56157 4.53743C9.66813 4.47599 9.78901 4.44371 9.91202 4.44385C10.0349 4.44389 10.1555 4.47625 10.2619 4.53769C10.3683 4.59912 10.4566 4.68747 10.518 4.79385L14.041 10.8938C14.1024 11.0002 14.1348 11.1209 14.1348 11.2438C14.1348 11.3666 14.1025 11.4873 14.0411 11.5938C13.9797 11.7002 13.8913 11.7885 13.7849 11.85C13.6786 11.9114 13.5579 11.9438 13.435 11.9438H12.191V15.4998C12.191 15.6855 12.1173 15.8635 11.986 15.9948C11.8547 16.1261 11.6767 16.1998 11.491 16.1998ZM9.03302 14.7998H10.791V11.2438C10.791 11.0582 10.8648 10.8801 10.996 10.7489C11.1273 10.6176 11.3054 10.5438 11.491 10.5438H12.223L9.91202 6.54385L7.60001 10.5438H8.33201C8.51767 10.5438 8.69571 10.6176 8.82699 10.7489C8.95827 10.8801 9.03202 11.0582 9.03202 11.2438L9.03302 14.7998Z" fill="#0023EF"/>
<path d="M11.491 43.5711H8.33302C8.14736 43.5711 7.96932 43.4973 7.83804 43.366C7.70676 43.2348 7.63302 43.0567 7.63302 42.8711V39.3201H6.38801C6.26516 39.32 6.14447 39.2877 6.03809 39.2262C5.93171 39.1647 5.84337 39.0764 5.78196 38.97C5.72055 38.8636 5.68822 38.7429 5.68823 38.62C5.68824 38.4972 5.72059 38.3765 5.78201 38.2701L9.30502 32.1701C9.36652 32.0635 9.45501 31.9751 9.56157 31.9137C9.66813 31.8522 9.78901 31.8199 9.91202 31.8201C10.0349 31.8201 10.1555 31.8525 10.2619 31.9139C10.3683 31.9753 10.4566 32.0637 10.518 32.1701L14.041 38.2701C14.1024 38.3765 14.1348 38.4972 14.1348 38.62C14.1348 38.7429 14.1025 38.8636 14.0411 38.97C13.9797 39.0764 13.8913 39.1647 13.7849 39.2262C13.6786 39.2877 13.5579 39.32 13.435 39.3201H12.191V42.8711C12.191 43.0567 12.1173 43.2348 11.986 43.366C11.8547 43.4973 11.6767 43.5711 11.491 43.5711ZM9.03302 42.1711H10.791V38.6201C10.791 38.4344 10.8648 38.2564 10.996 38.1251C11.1273 37.9938 11.3054 37.9201 11.491 37.9201H12.223L9.91202 33.9201L7.60001 37.9201H8.33201C8.51767 37.9201 8.69571 37.9938 8.82699 38.1251C8.95827 38.2564 9.03202 38.4344 9.03202 38.6201L9.03302 42.1711Z" fill="#0023EF"/>
<path d="M41.667 16.1998H38.509C38.3234 16.1998 38.1453 16.1261 38.014 15.9948C37.8828 15.8635 37.809 15.6855 37.809 15.4998V11.9438H36.565C36.4422 11.9438 36.3215 11.9114 36.2151 11.85C36.1087 11.7885 36.0204 11.7002 35.959 11.5938C35.8975 11.4873 35.8652 11.3666 35.8652 11.2438C35.8652 11.1209 35.8976 11.0002 35.959 10.8938L39.482 4.79385C39.5434 4.6873 39.6318 4.59881 39.7383 4.53728C39.8447 4.47575 39.9655 4.44336 40.0885 4.44336C40.2115 4.44336 40.3323 4.47575 40.4388 4.53728C40.5452 4.59881 40.6336 4.6873 40.695 4.79385L44.218 10.8938C44.2794 11.0002 44.3118 11.1209 44.3118 11.2438C44.3118 11.3666 44.2795 11.4873 44.2181 11.5938C44.1567 11.7002 44.0683 11.7885 43.9619 11.85C43.8556 11.9114 43.7349 11.9438 43.612 11.9438H42.367V15.4998C42.367 15.6855 42.2933 15.8635 42.162 15.9948C42.0307 16.1261 41.8527 16.1998 41.667 16.1998ZM39.209 14.7998H40.967V11.2438C40.967 11.0582 41.0408 10.8801 41.172 10.7489C41.3033 10.6176 41.4814 10.5438 41.667 10.5438H42.4L40.089 6.54385L37.778 10.5438H38.51C38.6957 10.5438 38.8737 10.6176 39.005 10.7489C39.1363 10.8801 39.21 11.0582 39.21 11.2438L39.209 14.7998Z" fill="#0023EF"/>
<path d="M41.667 43.5711H38.509C38.3234 43.5711 38.1453 43.4973 38.014 43.3661C37.8828 43.2348 37.809 43.0567 37.809 42.8711V39.3201H36.565C36.4422 39.32 36.3215 39.2877 36.2151 39.2262C36.1087 39.1648 36.0204 39.0764 35.959 38.97C35.8975 38.8636 35.8652 38.7429 35.8652 38.62C35.8652 38.4972 35.8976 38.3765 35.959 38.2701L39.482 32.1701C39.5434 32.0635 39.6318 31.975 39.7383 31.9135C39.8447 31.852 39.9655 31.8196 40.0885 31.8196C40.2115 31.8196 40.3323 31.852 40.4388 31.9135C40.5452 31.975 40.6336 32.0635 40.695 32.1701L44.218 38.2701C44.2794 38.3765 44.3118 38.4972 44.3118 38.62C44.3118 38.7429 44.2795 38.8636 44.2181 38.97C44.1567 39.0764 44.0683 39.1648 43.9619 39.2262C43.8556 39.2877 43.7349 39.32 43.612 39.3201H42.367V42.8711C42.367 43.0567 42.2933 43.2348 42.162 43.3661C42.0307 43.4973 41.8527 43.5711 41.667 43.5711ZM39.209 42.1711H40.967V38.6201C40.967 38.4344 41.0408 38.2564 41.172 38.1251C41.3033 37.9938 41.4814 37.9201 41.667 37.9201H42.4L40.089 33.9201L37.778 37.9201H38.51C38.6957 37.9201 38.8737 37.9938 39.005 38.1251C39.1363 38.2564 39.21 38.4344 39.21 38.6201L39.209 42.1711Z" fill="#0023EF"/>
</svg>
