<svg width="48" height="41" viewBox="0 0 48 41" fill="none" xmlns="http://www.w3.org/2000/svg">
<path d="M35.944 1.30237C35.944 1.30237 39.4048 2.17597 40.2952 3.48077C40.8295 4.33452 41.0712 5.33901 40.984 6.34237H42.664V3.64317C42.664 3.64317 41.8352 1.25757 40.0936 1.25757C38.352 1.25757 35.944 1.30237 35.944 1.30237Z" fill="#69D7F9"/>
<path d="M33.676 33.7264V35.6976H3.86159C3.19124 35.6976 2.54826 35.4317 2.07373 34.9582C1.5992 34.4848 1.33187 33.8424 1.33038 33.172V31.8616L1.40318 30.988C1.40318 30.988 1.86798 33.7264 8.16799 33.7264H33.676Z" fill="#69D7F9"/>
<path d="M42.4638 3.92325V6.04005H1.00701V3.94005C1.00478 3.55334 1.0793 3.17003 1.22626 2.81233C1.37322 2.45462 1.58969 2.12963 1.86314 1.85619C2.13659 1.58274 2.46158 1.36626 2.81929 1.2193C3.17699 1.07234 3.5603 0.99782 3.94701 1.00005H39.507C39.8931 0.997836 40.2759 1.07169 40.6334 1.2174C40.9909 1.36311 41.3163 1.57782 41.5909 1.84926C41.8654 2.12071 42.0838 2.44357 42.2336 2.79943C42.3834 3.15529 42.4616 3.53716 42.4638 3.92325Z" stroke="#0023EF" stroke-miterlimit="10"/>
<path d="M3.05518 3.64331H5.35678" stroke="#0023EF" stroke-miterlimit="10"/>
<path d="M6.24719 3.64331H8.55439" stroke="#0023EF" stroke-miterlimit="10"/>
<path d="M9.44482 3.64331H11.752" stroke="#0023EF" stroke-miterlimit="10"/>
<path d="M33.9504 35.7927H3.6208C3.27663 35.7927 2.93583 35.725 2.61786 35.5933C2.29989 35.4615 2.01098 35.2685 1.76761 35.0251C1.52425 34.7818 1.3312 34.4929 1.1995 34.1749C1.06779 33.8569 1 33.5161 1 33.1719V7.80396H42.44V25.6736" stroke="#0023EF" stroke-miterlimit="10"/>
<path d="M22.8512 13.74H22.1792C20.7365 13.7415 19.3535 14.3156 18.3339 15.3362C17.3143 16.3569 16.7416 17.7405 16.7416 19.1832C16.7416 20.6268 17.3151 22.0113 18.3359 23.0321C19.3567 24.0529 20.7412 24.6264 22.1848 24.6264H22.5544C24.3559 24.6264 26.0837 23.9107 27.3576 22.6368C28.6315 21.3629 29.3472 19.6352 29.3472 17.8336" stroke="#0023EF" stroke-miterlimit="10"/>
<path d="M21.272 11.0745L23.9376 13.7401L21.272 16.4057" stroke="#0023EF" stroke-miterlimit="10"/>
<path d="M21.7312 27.9919H4.0744V30.2767H21.7312V27.9919Z" stroke="#0023EF" stroke-miterlimit="10"/>
<path d="M30.7752 27.9919H21.7312V30.2767H30.7752V27.9919Z" stroke="#0023EF" stroke-miterlimit="10"/>
<path d="M44.9824 37.1089L40.928 40.1161C40.6923 40.2832 40.4105 40.373 40.1216 40.373C39.8327 40.373 39.5509 40.2832 39.3152 40.1161L35.2608 37.1089C34.7912 36.7196 34.4114 36.2332 34.1475 35.6832C33.8836 35.1331 33.7419 34.5325 33.732 33.9226V25.9146H46.5112V33.9226C46.5013 34.5325 46.3596 35.1331 46.0957 35.6832C45.8318 36.2332 45.452 36.7196 44.9824 37.1089Z" stroke="#0023EF" stroke-miterlimit="10"/>
<path d="M38.5816 30.4672V29.7336C38.5831 29.3717 38.7275 29.025 38.9834 28.769C39.2394 28.5131 39.5861 28.3687 39.948 28.3672H40.2896C40.6525 28.3672 41.0006 28.511 41.2578 28.7671C41.5149 29.0231 41.6601 29.3707 41.6616 29.7336V30.8536" stroke="#0023EF" stroke-miterlimit="10"/>
<path d="M43.3584 30.8145H36.8904V35.0537H43.3584V30.8145Z" stroke="#0023EF" stroke-miterlimit="10"/>
</svg>
