<svg width="895" height="733" viewBox="0 0 895 733" fill="none" xmlns="http://www.w3.org/2000/svg">
<path d="M256.494 587.282C229.511 587.282 202.568 586.799 175.665 585.833C137.225 584.452 97.4753 583.025 60.5296 562.534C34.6846 548.201 11.7948 525.205 -5.66454 496.03C-17.3341 476.256 -25.8907 454.803 -31.0338 432.426C-40.6277 391.684 -40.301 349.235 -30.081 308.646C-26.4995 294.73 -21.5621 281.199 -15.3398 268.246C11.6031 212.452 60.7451 175 119.486 165.492C119.971 165.429 120.462 165.419 120.949 165.461C121.213 165.475 121.477 165.49 121.745 165.479L122.091 165.369C122.977 165.061 123.887 164.827 124.811 164.671C215.405 151.184 311.176 178.472 401.764 243.584C471.806 293.935 564.631 321.049 685.545 326.473L687.262 326.563C720.921 328.497 753.48 342.374 781.422 366.696C809.001 390.702 829.709 422.73 841.306 459.32C842.731 463.781 844.038 468.425 845.19 473.121C846.262 477.485 846.187 482.053 844.97 486.38C843.754 490.707 841.438 494.645 838.249 497.811V497.82L837.948 498.13C837.223 498.85 836.46 499.542 835.681 500.185L834.764 500.941C827.036 507.306 820.933 512.335 813.629 516.24C808.757 518.827 803.576 520.783 798.21 522.061C768.745 529.245 738.823 535.905 709.274 541.858C651.89 553.428 592.993 562.973 534.22 570.226C442.081 581.587 349.331 587.283 256.494 587.282ZM120.262 167.437C120.082 167.435 119.901 167.447 119.723 167.473C61.5309 176.892 12.8541 213.977 -13.8217 269.218C-19.9826 282.043 -24.8711 295.44 -28.4169 309.218C-38.5438 349.447 -38.8665 391.52 -29.3579 431.899C-24.2651 454.062 -15.7915 475.31 -4.23461 494.895C13.0538 523.784 35.7095 546.55 61.2836 560.731C97.8976 581.039 137.46 582.46 175.72 583.833C295.382 588.108 415.196 582.894 534.035 568.238C592.769 560.989 651.628 551.451 708.975 539.887C738.503 533.939 768.405 527.284 797.85 520.104C803.087 518.858 808.143 516.95 812.898 514.426C820.055 510.599 826.1 505.619 833.753 499.314L834.67 498.559C835.34 498.006 835.998 497.414 836.628 496.799L836.808 496.609C843.098 490.27 845.543 481.907 843.518 473.665V473.664C842.379 469.017 841.086 464.424 839.675 460.009C815.985 385.262 754.701 332.439 687.178 328.561L685.471 328.471C630.239 325.993 581.907 319.128 537.72 307.481C484.97 293.579 438.918 272.651 400.844 245.281C310.602 180.418 215.231 153.231 125.033 166.654C124.19 166.799 123.361 167.014 122.554 167.297L121.931 167.471C121.577 167.487 121.223 167.483 120.869 167.458C120.661 167.448 120.459 167.437 120.262 167.437Z" fill="#F0F0F0"/>
<path d="M75.249 475C103.416 475 126.249 452.167 126.249 424C126.249 395.833 103.416 373 75.249 373C47.0825 373 24.249 395.833 24.249 424C24.249 452.167 47.0825 475 75.249 475Z" fill="#F0F0F0"/>
<path d="M400.249 241C428.416 241 451.249 218.167 451.249 190C451.249 161.833 428.416 139 400.249 139C372.083 139 349.249 161.833 349.249 190C349.249 218.167 372.083 241 400.249 241Z" fill="#F0F0F0"/>
<path d="M805.249 483C833.416 483 856.249 460.167 856.249 432C856.249 403.833 833.416 381 805.249 381C777.083 381 754.249 403.833 754.249 432C754.249 460.167 777.083 483 805.249 483Z" fill="#F0F0F0"/>
<path d="M492.249 195.562V311.208C492.249 313.61 491.302 315.915 489.612 317.623C487.923 319.33 485.628 320.302 483.226 320.327C483.192 320.331 483.159 320.332 483.126 320.331H469.666C458.896 320.331 448.568 316.053 440.953 308.438C433.338 300.823 429.059 290.494 429.059 279.725V195.562C429.059 193.142 430.021 190.822 431.732 189.111C433.442 187.4 435.763 186.438 438.183 186.438H443.637C441.11 193.809 475.402 196.912 477.285 186.438H483.126C485.545 186.438 487.866 187.4 489.577 189.111C491.288 190.822 492.249 193.142 492.249 195.562Z" fill="#6C63FF"/>
<path d="M452.306 177.791C452.307 177.474 452.433 177.17 452.657 176.946C452.881 176.722 453.185 176.596 453.502 176.595H461.632C461.949 176.596 462.252 176.722 462.475 176.947C462.699 177.171 462.824 177.474 462.824 177.791C462.824 178.107 462.699 178.411 462.475 178.635C462.252 178.859 461.949 178.986 461.632 178.987H453.502C453.185 178.986 452.881 178.86 452.657 178.636C452.433 178.412 452.307 178.108 452.306 177.791Z" fill="#3F3D56"/>
<path d="M485.919 335H434.503C430.514 334.995 426.689 333.409 423.869 330.588C421.048 327.768 419.461 323.943 419.457 319.954V239.113C419.174 238.91 418.944 238.643 418.786 238.334C418.627 238.024 418.545 237.682 418.545 237.334V229.204C418.545 228.856 418.627 228.513 418.786 228.204C418.944 227.895 419.174 227.628 419.457 227.425V225.243C419.174 225.04 418.944 224.773 418.786 224.464C418.627 224.155 418.545 223.812 418.545 223.465V215.334C418.545 214.986 418.627 214.644 418.786 214.335C418.944 214.025 419.174 213.758 419.457 213.556V209.612C419.108 209.425 418.817 209.146 418.614 208.806C418.412 208.466 418.305 208.078 418.306 207.682V199.552C418.305 199.156 418.411 198.767 418.614 198.427C418.817 198.087 419.108 197.809 419.457 197.622V186.815C419.461 182.826 421.048 179.001 423.869 176.181C426.689 173.36 430.514 171.774 434.503 171.769H485.919C489.908 171.774 493.732 173.36 496.553 176.181C499.374 179.002 500.96 182.826 500.965 186.815V210.371C501.236 210.541 501.459 210.776 501.614 211.056C501.769 211.335 501.85 211.65 501.851 211.969V227.472C501.85 227.792 501.769 228.106 501.614 228.386C501.459 228.665 501.236 228.901 500.965 229.071V319.954C500.96 323.943 499.374 327.767 496.553 330.588C493.732 333.409 489.908 334.995 485.919 335ZM434.503 173.769C431.044 173.773 427.728 175.149 425.282 177.594C422.836 180.04 421.46 183.356 421.456 186.815V199.323L420.495 199.36C420.445 199.362 420.397 199.383 420.362 199.418C420.327 199.454 420.307 199.502 420.306 199.552V207.682C420.307 207.732 420.327 207.78 420.362 207.815C420.397 207.851 420.445 207.872 420.495 207.874L421.456 207.911V214.96L420.696 215.147C420.654 215.158 420.616 215.181 420.589 215.215C420.562 215.249 420.546 215.291 420.545 215.334V223.465C420.546 223.508 420.562 223.55 420.589 223.584C420.616 223.617 420.654 223.641 420.696 223.651L421.456 223.839V228.829L420.696 229.017C420.654 229.027 420.616 229.051 420.589 229.085C420.562 229.118 420.546 229.16 420.545 229.204V237.334C420.546 237.377 420.562 237.419 420.589 237.453C420.616 237.487 420.654 237.511 420.696 237.521L421.456 237.708V319.954C421.46 323.413 422.836 326.729 425.282 329.175C427.728 331.62 431.044 332.996 434.503 333H485.919C489.378 332.996 492.694 331.62 495.139 329.174C497.585 326.729 498.961 323.413 498.965 319.954V227.358H499.851V212.083H498.965V186.815C498.961 183.356 497.585 180.04 495.139 177.594C492.694 175.149 489.378 173.773 485.919 173.769L434.503 173.769Z" fill="#3F3D56"/>
<path d="M466.176 178.987C466.836 178.987 467.371 178.451 467.371 177.791C467.371 177.131 466.836 176.595 466.176 176.595C465.515 176.595 464.98 177.131 464.98 177.791C464.98 178.451 465.515 178.987 466.176 178.987Z" fill="#3F3D56"/>
<path d="M206.08 409.403H72.293C70.3931 409.398 68.5723 408.641 67.2288 407.298C65.8853 405.954 65.1282 404.134 65.123 402.234V337.045C65.1279 335.145 65.8848 333.324 67.2281 331.981C68.5715 330.637 70.3921 329.88 72.292 329.875H206.079C207.979 329.88 209.8 330.637 211.143 331.98C212.487 333.323 213.244 335.144 213.249 337.044V402.233C213.244 404.133 212.487 405.954 211.144 407.297C209.801 408.641 207.98 409.398 206.08 409.403Z" fill="white"/>
<path d="M206.08 409.403H72.293C70.3931 409.398 68.5723 408.641 67.2288 407.298C65.8853 405.954 65.1282 404.134 65.123 402.234V337.045C65.1279 335.145 65.8848 333.324 67.2281 331.981C68.5715 330.637 70.3921 329.88 72.292 329.875H206.079C207.979 329.88 209.8 330.637 211.143 331.98C212.487 333.323 213.244 335.144 213.249 337.044V402.233C213.244 404.133 212.487 405.954 211.144 407.297C209.801 408.641 207.98 409.398 206.08 409.403ZM72.293 331.875C70.9229 331.879 69.6101 332.425 68.6414 333.394C67.6727 334.363 67.1268 335.676 67.123 337.046V402.233C67.127 403.603 67.6731 404.916 68.642 405.885C69.6109 406.853 70.9238 407.399 72.2939 407.403H206.078C207.448 407.399 208.761 406.853 209.73 405.884C210.699 404.915 211.245 403.602 211.249 402.232V337.045C211.245 335.675 210.699 334.362 209.73 333.393C208.761 332.425 207.448 331.879 206.078 331.875L72.293 331.875Z" fill="#3F3D56"/>
<path d="M146.357 399.769C119.971 399.769 92.458 399.517 82.1926 399.354C80.842 399.326 79.5558 398.771 78.6086 397.808C77.6614 396.845 77.1283 395.549 77.123 394.198V340.237C77.1236 339.753 77.3157 339.289 77.6573 338.947C77.9989 338.604 78.4623 338.411 78.946 338.409H199.422C199.905 338.41 200.369 338.602 200.712 338.943C201.054 339.285 201.247 339.748 201.249 340.232V376.844C201.227 382.82 198.863 388.55 194.664 392.803C190.466 397.057 184.768 399.495 178.792 399.596C169.225 399.721 157.896 399.769 146.357 399.769Z" fill="#6C63FF"/>
<path d="M192.271 373.48H83.4112C82.4996 373.477 81.611 373.194 80.866 372.669C80.121 372.144 79.5558 371.402 79.2471 370.544L66.9258 335.978C66.6884 335.311 66.6144 334.597 66.71 333.896C66.8057 333.195 67.0682 332.527 67.4756 331.948C67.8829 331.37 68.4232 330.897 69.051 330.57C69.6788 330.244 70.3758 330.073 71.0835 330.071L207.156 329.882C207.803 329.881 208.442 330.022 209.028 330.295C209.614 330.569 210.134 330.967 210.549 331.463C210.965 331.958 211.267 332.539 211.434 333.164C211.601 333.789 211.628 334.443 211.515 335.08L211.62 335.124L211.23 336.036L211.226 336.045L196.331 370.8C195.991 371.596 195.425 372.274 194.704 372.751C193.982 373.227 193.135 373.481 192.271 373.48ZM207.162 331.882L71.0874 332.071C70.6997 332.072 70.3179 332.166 69.9739 332.345C69.63 332.523 69.334 332.782 69.1108 333.099C68.8877 333.416 68.7438 333.782 68.6914 334.166C68.639 334.55 68.6795 334.941 68.8096 335.307L81.1304 369.872C81.2997 370.341 81.6096 370.748 82.0179 371.036C82.4262 371.323 82.9131 371.478 83.4126 371.48H192.271C192.744 371.48 193.207 371.341 193.602 371.081C193.997 370.82 194.307 370.449 194.492 370.013L209.388 335.257C209.546 334.889 209.61 334.487 209.574 334.088C209.538 333.689 209.404 333.305 209.184 332.97C208.963 332.636 208.663 332.361 208.31 332.171C207.957 331.981 207.563 331.882 207.162 331.882Z" fill="#3F3D56"/>
<path d="M138.983 381.004C143.691 381.004 147.507 377.188 147.507 372.48C147.507 367.772 143.691 363.956 138.983 363.956C134.275 363.956 130.459 367.772 130.459 372.48C130.459 377.188 134.275 381.004 138.983 381.004Z" fill="white"/>
<path d="M460.983 307.004C465.691 307.004 469.507 303.188 469.507 298.48C469.507 293.772 465.691 289.956 460.983 289.956C456.275 289.956 452.459 293.772 452.459 298.48C452.459 303.188 456.275 307.004 460.983 307.004Z" fill="white"/>
<path d="M783.379 422.12L760.609 399.64C759.501 398.537 758.185 397.663 756.739 397.07C755.292 396.476 753.743 396.174 752.179 396.18H752.099C750.523 396.184 748.965 396.501 747.512 397.112C746.06 397.723 744.744 398.617 743.639 399.74C738.548 404.892 735.652 411.818 735.561 419.061C735.469 426.304 738.189 433.3 743.149 438.58C743.389 438.84 743.639 439.09 743.889 439.34C745.274 440.716 746.803 441.94 748.449 442.99C752.95 445.898 758.2 447.437 763.559 447.42H763.729C767.408 447.407 771.047 446.665 774.437 445.237C777.827 443.809 780.9 441.723 783.479 439.1C785.713 436.833 786.958 433.772 786.939 430.589C786.92 427.406 785.64 424.36 783.379 422.12ZM782.059 437.69C777.831 441.949 772.265 444.62 766.298 445.254C760.33 445.888 754.327 444.445 749.299 441.17C747.861 440.218 746.518 439.13 745.289 437.92C740.383 433.074 737.602 426.478 737.559 419.582C737.516 412.687 740.214 406.056 745.059 401.15C745.98 400.211 747.078 399.465 748.291 398.955C749.503 398.445 750.804 398.182 752.119 398.18H752.179C753.481 398.175 754.771 398.427 755.975 398.921C757.18 399.416 758.275 400.142 759.199 401.06L781.969 423.55C783.854 425.414 784.922 427.95 784.939 430.601C784.956 433.252 783.92 435.802 782.059 437.69Z" fill="#3F3D56"/>
<path d="M708.669 348.34L685.899 325.85C683.658 323.626 680.626 322.382 677.469 322.39H677.399C675.822 322.396 674.261 322.715 672.807 323.327C671.353 323.94 670.035 324.835 668.929 325.96C664.72 330.234 661.991 335.745 661.142 341.683C660.292 347.622 661.367 353.676 664.209 358.96L664.219 358.97C665.392 361.131 666.848 363.125 668.549 364.9C668.739 365.12 668.959 365.34 669.179 365.56C674.408 370.75 681.482 373.656 688.849 373.64H689.029C692.708 373.624 696.348 372.88 699.737 371.45C703.127 370.021 706.2 367.934 708.779 365.31C709.886 364.188 710.762 362.86 711.355 361.4C711.949 359.94 712.249 358.378 712.239 356.802C712.229 355.226 711.908 353.668 711.296 352.216C710.683 350.764 709.791 349.447 708.669 348.34ZM707.349 363.91C704.956 366.345 702.103 368.281 698.957 369.608C695.811 370.935 692.433 371.625 689.019 371.64H688.849C683.721 371.638 678.709 370.12 674.442 367.276C670.175 364.433 666.843 360.391 664.867 355.66C662.891 350.928 662.358 345.718 663.335 340.684C664.312 335.651 666.756 331.018 670.359 327.37C672.223 325.485 674.759 324.417 677.41 324.4C680.062 324.383 682.611 325.419 684.499 327.28L707.269 349.76C709.153 351.627 710.219 354.166 710.234 356.818C710.249 359.471 709.212 362.021 707.349 363.91Z" fill="#3F3D56"/>
<path d="M784.834 429.187L759.731 404.394C758.085 402.772 755.863 401.869 753.552 401.883C751.241 401.897 749.03 402.828 747.404 404.47C745.37 406.525 743.761 408.96 742.669 411.637C741.577 414.314 741.023 417.18 741.039 420.071C741.056 422.963 741.642 425.822 742.764 428.487C743.886 431.151 745.523 433.568 747.58 435.6C749.637 437.631 752.074 439.238 754.752 440.327C757.43 441.416 760.297 441.966 763.188 441.947C766.079 441.927 768.938 441.338 771.601 440.213C774.264 439.088 776.68 437.449 778.709 435.389L784.834 429.187Z" fill="#6C63FF"/>
<path d="M710.129 355.403L685.026 330.61C683.38 328.987 681.157 328.084 678.846 328.099C676.535 328.113 674.324 329.044 672.698 330.686C670.664 332.741 669.056 335.176 667.963 337.853C666.871 340.53 666.318 343.396 666.334 346.287C666.35 349.178 666.936 352.038 668.059 354.702C669.181 357.367 670.817 359.784 672.874 361.816C674.931 363.847 677.368 365.453 680.047 366.543C682.725 367.632 685.591 368.182 688.483 368.163C691.374 368.143 694.232 367.554 696.896 366.429C699.559 365.303 701.974 363.664 704.004 361.605L710.129 355.403Z" fill="#6C63FF"/>
<path d="M757.249 444.63L756.649 446.21C753.829 445.14 751.096 444.067 748.449 442.99C701.569 423.86 679.189 401.47 664.219 358.97L664.209 358.96C663.499 356.96 662.809 354.913 662.139 352.82L663.719 352.31C664.247 354.323 665.02 356.264 666.019 358.09C666.839 360.42 667.683 362.69 668.549 364.9C682.619 400.77 703.369 421.27 743.149 438.58C745.149 439.45 747.199 440.313 749.299 441.17C751.738 442.759 754.425 443.928 757.249 444.63Z" fill="#3F3D56"/>
<path d="M685.482 371.82L684.076 373.243L736.014 424.541L737.42 423.118L685.482 371.82Z" fill="#3F3D56"/>
<path opacity="0.1" d="M303.18 196.83H272.64V232.03H303.18V196.83Z" fill="#6C63FF"/>
<path opacity="0.1" d="M303.18 269.78H272.64V277.88H303.18V269.78Z" fill="#6C63FF"/>
<path opacity="0.1" d="M303.18 281.33H272.64V304.98H303.18V281.33Z" fill="#6C63FF"/>
<path opacity="0.1" d="M303.18 342.74H272.64V377.94H303.18V342.74Z" fill="#6C63FF"/>
<path opacity="0.1" d="M303.18 415.7H272.64V450.9H303.18V415.7Z" fill="#6C63FF"/>
<path opacity="0.1" d="M272.63 515.66L271.73 515.71H272.63V523.88H303.17V488.65H272.63V515.66Z" fill="#6C63FF"/>
<path opacity="0.1" d="M272.63 561.59V588.78C282.85 588.013 293.03 586.966 303.17 585.64V561.64L272.63 561.59Z" fill="#6C63FF"/>
<path opacity="0.1" d="M171.73 315.04H197.49V292.13H171.73V315.04Z" fill="#6C63FF"/>
<path opacity="0.1" d="M171.73 371.55H197.49V348.64H171.73V371.55Z" fill="#6C63FF"/>
<path opacity="0.1" d="M171.73 428.06H197.49V405.15H171.73V428.06Z" fill="#6C63FF"/>
<path opacity="0.1" d="M171.73 484.58H197.49V461.67H171.73V484.58Z" fill="#6C63FF"/>
<path opacity="0.1" d="M171.73 541.09H197.49V518.18H171.73V541.09Z" fill="#6C63FF"/>
<path opacity="0.1" d="M197.5 589.46V574.68H171.74V587.36L197.5 589.46Z" fill="#6C63FF"/>
<path opacity="0.2" d="M225.3 76.6801C236.23 76.6801 245.09 67.8198 245.09 56.8901C245.09 45.9604 236.23 37.1001 225.3 37.1001C214.37 37.1001 205.51 45.9604 205.51 56.8901C205.51 67.8198 214.37 76.6801 225.3 76.6801Z" stroke="#6C63FF" stroke-miterlimit="10"/>
<path opacity="0.2" d="M225.3 92.6601C245.055 92.6601 261.07 76.6453 261.07 56.8901C261.07 37.1349 245.055 21.1201 225.3 21.1201C205.545 21.1201 189.53 37.1349 189.53 56.8901C189.53 76.6453 205.545 92.6601 225.3 92.6601Z" stroke="#6C63FF" stroke-miterlimit="10"/>
<path opacity="0.2" d="M225.3 113.28C256.443 113.28 281.69 88.0333 281.69 56.89C281.69 25.7467 256.443 0.5 225.3 0.5C194.157 0.5 168.91 25.7467 168.91 56.89C168.91 88.0333 194.157 113.28 225.3 113.28Z" stroke="#6C63FF" stroke-miterlimit="10"/>
<path d="M362.02 725.22C361.49 721.28 358.78 716.22 358.78 716.22L344.31 695.07H344.44C344.44 695.07 342.15 684.44 344.44 679.24C346.73 674.04 336.3 661.18 336.3 661.18C336.3 661.18 335.03 657.96 338.3 654C341.57 650.04 336.3 638.42 336.3 638.42C336.3 638.42 333.75 614.17 333.5 610.42C333.25 606.67 331.21 586.18 331.21 586.18L326.37 542.63L317.77 427.23L317.61 425.07C318.68 424.56 319.24 424.24 319.24 424.24L317.44 360.47L318.93 359.16C331.93 347.69 361.84 321.16 361.55 320.55C361.16 319.81 357.92 276.2 357.55 265.25C357.224 257.46 355.493 249.794 352.44 242.62C351.69 241.16 349.53 231.62 348.63 227.54L348.24 225.73C348.24 225.73 339.46 209.4 340.24 201.98C341.02 194.56 342.53 188.98 323.82 186.39C323.82 186.39 308.04 184.1 298.75 177.85C293.203 174.111 287.166 171.157 280.81 169.07C280.81 169.07 277.37 163.07 274.02 164.23V151.49C276.592 150.482 278.805 148.729 280.375 146.456C281.944 144.183 282.799 141.492 282.83 138.73V92.8398C282.777 89.1125 281.247 85.5586 278.574 82.9596C275.902 80.3605 272.307 78.929 268.58 78.9798H228.79C228.214 78.9941 227.64 79.0442 227.07 79.1298V58.1298C227.07 57.8263 227.007 57.5261 226.887 57.2476C226.767 56.969 226.591 56.718 226.37 56.5098C225.924 56.0729 225.324 55.8286 224.7 55.8298C224.081 55.8218 223.484 56.0593 223.04 56.4903C222.596 56.9214 222.341 57.5109 222.33 58.1298V80.6198C220.111 81.7775 218.25 83.5171 216.944 85.6522C215.639 87.7873 214.939 90.2373 214.92 92.7398V138.63C214.95 141.391 215.803 144.081 217.371 146.354C218.939 148.627 221.15 150.381 223.72 151.39V163.5C222.11 163.31 219.72 164.42 217 169.96C217 169.96 203.38 177.63 198.67 178.5C193.96 179.37 177.29 185.05 177.29 185.05C174.756 186.827 171.735 187.777 168.64 187.77C163.42 187.77 159.09 198.91 159.73 204.97C160.37 211.03 159.34 215.48 154.51 215.73C149.68 215.98 152.32 225.66 152.34 225.73C152.28 226 152.12 226.73 151.89 227.79C150.95 232.02 148.89 241.09 148.17 242.51C145.095 249.679 143.347 257.346 143.01 265.14C142.63 276.14 139.38 319.7 139.01 320.44C138.77 320.93 159.27 339.24 173.7 352.03L175.78 353.87L169.15 414.4C169.15 414.4 169.15 421.18 175.97 426.26C175.97 426.95 175.97 427.68 175.89 428.42C175.6 435.42 175.02 444.07 173.89 446.32C171.89 450.32 172.36 471.55 172.36 471.55C172.36 471.55 170.36 514.86 167.78 519.55C165.2 524.24 164.72 534.15 165.49 536.13C166.26 538.11 162.94 590.07 162.94 590.07L160.39 613.32C160.39 613.32 161.16 635.59 158.87 636.09C156.58 636.59 155.3 651.92 155.3 651.92C155.3 651.92 147.16 662.81 150.72 666.77C154.28 670.73 150.19 672.46 149.82 673.45C149.45 674.44 142.06 678.15 147.41 692C147.46 692.14 147.53 692.26 147.59 692.39C142.59 699.16 126.72 721.08 127.68 724.39C128.407 726.535 129.923 728.323 131.92 729.39C135.65 731.57 142.06 732.58 152.24 729.39C169.17 724.07 167.9 720.23 167.9 720.23C167.9 720.23 168.03 714.05 175.03 713.55C182.03 713.05 187.25 706.75 187.25 706.75L186.43 703.75L185.3 699.62C185.44 698.39 186.3 696.37 190.17 695.22C196.03 693.49 194.5 682.61 194.5 682.61C194.5 682.61 193.99 671.22 196.5 669.74C199.01 668.26 198.02 649.45 198.02 649.45C198.02 649.45 200.83 635.84 204.9 626.68C208.97 617.52 213.81 563.1 213.81 563.1C213.81 563.1 217.11 536.38 220.17 528.71C223.23 521.04 226.03 499.51 226.03 499.51C226.03 499.51 244.87 463.88 245.12 455.96C245.12 455.96 247.56 448.54 249.91 456.71C252.26 464.88 259.12 484.42 259.12 484.42L265.74 508.42L273.63 544.29L278.72 574.48C278.72 574.48 277.97 585.98 280 589.98C282.03 593.98 284.84 603.09 283.31 604.83C281.78 606.57 286.37 614.72 287.64 616.45C288.91 618.18 287.64 654.81 287.64 654.81C287.64 654.81 293.49 685.98 301.89 691.42C302.479 691.791 303.102 692.105 303.75 692.36C303.63 695.74 303.51 700.26 303.67 702.62C303.653 703.149 303.742 703.675 303.93 704.17C304.69 705.17 313.35 711.83 315.13 711.83C316.91 711.83 323.27 716.17 323.53 718.27C323.79 720.37 342.14 729.27 344.73 729.53C347.32 729.79 359.93 732 361.73 728.53C362.159 727.481 362.26 726.327 362.02 725.22ZM316.94 279.37L318.25 280.47C318.25 280.47 319.58 290.68 320.54 293.73C321.5 296.78 320.35 302.73 320.35 302.73C320.35 302.73 320.54 307 321.68 309.22C322.82 311.44 319.44 316.28 319.44 316.28H316.34L315.34 278.06L316.94 279.37ZM179.1 312.37C178.624 311.386 178.552 310.256 178.9 309.22C179.174 308.663 179.392 308.08 179.55 307.48C179.926 305.921 180.157 304.331 180.24 302.73C180.242 302.713 180.242 302.696 180.24 302.68C180.14 302.1 179.16 296.68 180.06 293.68C180.96 290.68 182.35 280.42 182.35 280.42L183.22 279.69L185.22 278.01C185.22 278.01 185.28 277.37 185.36 276.32C185.79 285.32 186.13 295.16 185.58 295.7C184.58 296.7 180.87 306.34 181.76 306.7C182.05 306.82 181.65 310.7 180.98 315.88C180.229 314.784 179.598 313.611 179.1 312.38V312.37Z" fill="url(#paint0_linear_125_515)"/>
<path d="M227.59 59.1799V89.5099C227.59 90.1199 227.348 90.7049 226.916 91.1362C226.485 91.5676 225.9 91.8099 225.29 91.8099C224.68 91.8099 224.095 91.5676 223.664 91.1362C223.232 90.7049 222.99 90.1199 222.99 89.5099V59.1799C222.99 58.8778 223.049 58.5788 223.165 58.2997C223.281 58.0207 223.45 57.7671 223.664 57.5535C223.877 57.34 224.131 57.1705 224.41 57.055C224.689 56.9394 224.988 56.8799 225.29 56.8799C225.898 56.8851 226.48 57.1291 226.911 57.5593C227.341 57.9895 227.585 58.5715 227.59 59.1799Z" fill="#6F758D"/>
<path d="M273.13 140.26V187.39C273.119 191.155 271.619 194.764 268.956 197.426C266.294 200.089 262.685 201.589 258.92 201.6H238.56C234.793 201.592 231.182 200.093 228.517 197.43C225.852 194.767 224.351 191.157 224.34 187.39V140.26C224.353 136.493 225.856 132.885 228.52 130.223C231.184 127.561 234.794 126.06 238.56 126.05H258.92C262.685 126.06 266.294 127.561 268.956 130.223C271.619 132.886 273.119 136.494 273.13 140.26Z" fill="#6F758D"/>
<path d="M193.07 316.87L189.18 364.87C189.18 364.87 183.34 359.58 175.78 352.68C161.78 339.91 141.88 321.62 142.11 321.14C142.48 320.4 145.63 276.85 146 265.92C146.327 258.148 148.02 250.495 151 243.31C151.7 241.9 153.7 232.85 154.61 228.62C154.9 227.3 155.07 226.45 155.07 226.45L161.56 223.85C161.56 223.85 188.8 254.24 188.8 254.8C188.8 255.36 186.95 278.7 186.95 278.7L185.01 280.39L184.17 281.11C184.17 281.11 182.87 291.31 181.94 294.36C181.07 297.26 182.02 302.73 182.12 303.3V303.35C182.037 304.947 181.81 306.534 181.44 308.09C181.29 308.692 181.082 309.278 180.82 309.84C180.484 310.873 180.552 311.995 181.01 312.98C181.524 314.353 182.196 315.661 183.01 316.88L193.07 316.87Z" fill="#3F3D56"/>
<path d="M358.16 321.13C358.45 321.71 329.39 348.23 316.8 359.68L311.09 364.86L307.2 316.86H317.2C317.2 316.86 320.54 312.04 319.43 309.86C318.32 307.68 318.13 303.37 318.13 303.37C318.13 303.37 319.24 297.44 318.32 294.37C317.4 291.3 316.09 281.12 316.09 281.12L314.82 279.98L313.31 278.66C313.31 278.66 311.44 255.35 311.44 254.79C311.44 254.23 338.68 223.84 338.68 223.84L345.16 226.44C345.16 226.44 345.31 227.14 345.54 228.25C346.42 232.25 348.54 241.85 349.24 243.3C352.224 250.484 353.916 258.138 354.24 265.91C354.64 276.84 357.79 320.39 358.16 321.13Z" fill="#3F3D56"/>
<path d="M358.28 728.49C356.55 731.95 344.28 729.73 341.8 729.49C339.32 729.25 321.47 720.34 321.22 718.25C320.97 716.16 314.79 711.82 313.07 711.82C311.35 711.82 302.94 705.15 302.19 704.16C302.011 703.667 301.926 703.145 301.94 702.62C301.68 698.56 302.19 688.1 302.19 688.1L338.02 690.1L355.44 716.26C355.44 716.26 358.06 721.26 358.58 725.26C358.79 726.343 358.686 727.464 358.28 728.49Z" fill="#3F3D56"/>
<path opacity="0.1" d="M358.28 728.49C356.55 731.95 344.28 729.73 341.8 729.49C339.32 729.25 321.47 720.34 321.22 718.25C320.97 716.16 314.79 711.82 313.07 711.82C311.35 711.82 302.94 705.15 302.19 704.16C302.011 703.667 301.926 703.145 301.94 702.62C301.68 698.56 302.19 688.1 302.19 688.1L338.02 690.1L355.44 716.26C355.44 716.26 358.06 721.26 358.58 725.26C358.79 726.343 358.686 727.464 358.28 728.49Z" fill="black"/>
<path opacity="0.1" d="M358.28 728.49C356.55 731.95 344.28 729.73 341.8 729.49C339.32 729.25 321.47 720.34 321.22 718.25C320.97 716.16 314.79 711.82 313.07 711.82C311.35 711.82 302.94 705.15 302.19 704.16C302.011 703.667 301.926 703.145 301.94 702.62L313.56 709.98C313.56 709.98 320.97 714.68 322.95 717.52C324.93 720.36 340.51 726.17 341.8 726.28C342.8 726.38 353 724.42 358.58 725.28C358.786 726.357 358.682 727.47 358.28 728.49Z" fill="black"/>
<path d="M188.91 706.87C188.91 706.87 183.84 713.17 177.05 713.66C175.263 713.679 173.551 714.38 172.264 715.62C170.978 716.86 170.214 718.545 170.13 720.33C170.13 720.33 171.37 724.17 154.94 729.48C145.05 732.68 138.83 731.67 135.2 729.48C133.246 728.397 131.78 726.608 131.1 724.48C129.99 720.53 151.85 690.48 151.85 690.48L171.74 689.24L185.95 695.67L188.12 703.8L188.91 706.87Z" fill="#3F3D56"/>
<path opacity="0.1" d="M188.91 706.87C188.91 706.87 183.84 713.17 177.05 713.66C175.263 713.679 173.551 714.38 172.264 715.62C170.978 716.86 170.214 718.545 170.13 720.33C170.13 720.33 171.37 724.17 154.94 729.48C145.05 732.68 138.83 731.67 135.2 729.48C133.246 728.397 131.78 726.608 131.1 724.48C129.99 720.53 151.85 690.48 151.85 690.48L171.74 689.24L185.95 695.67L188.12 703.8L188.91 706.87Z" fill="black"/>
<path opacity="0.1" d="M188.91 706.87C188.91 706.87 183.84 713.17 177.05 713.66C175.263 713.678 173.551 714.379 172.264 715.62C170.978 716.86 170.214 718.545 170.13 720.33C170.13 720.33 171.37 724.17 154.94 729.48C145.05 732.68 138.83 731.67 135.2 729.48C144.53 728.48 165.13 722.62 167.2 720.58C169.67 718.1 172.76 711.31 174.86 711.19C176.31 711.1 183.71 706.64 188.15 703.88L188.91 706.87Z" fill="black"/>
<path d="M341.44 679.32C339.22 684.51 341.44 695.13 341.44 695.13C341.44 695.13 308.33 696.87 300.18 691.43C292.03 685.99 286.34 654.86 286.34 654.86C286.34 654.86 287.57 618.3 286.34 616.56C285.11 614.82 280.66 606.68 282.14 604.96C283.62 603.24 280.9 594.08 278.93 590.13C276.96 586.18 277.69 574.81 277.69 574.81L272.75 544.67L265.09 508.84L258.67 484.84C258.67 484.84 252 465.32 249.73 457.16C247.46 449 245.08 456.42 245.08 456.42C244.84 464.33 226.55 499.91 226.55 499.91C226.55 499.91 223.83 521.4 220.86 529.06C217.89 536.72 214.69 563.41 214.69 563.41C214.69 563.41 210 617.76 206.04 626.9C202.08 636.04 199.44 649.67 199.44 649.67C199.44 649.67 200.44 668.45 197.96 669.93C195.48 671.41 195.96 682.78 195.96 682.78C195.96 682.78 197.44 693.65 191.75 695.39C186.06 697.13 187.06 700.82 187.06 700.82C187.06 700.82 155.44 705.98 150.24 692.17C145.04 678.36 152.24 674.63 152.58 673.64C152.92 672.65 156.92 670.93 153.45 666.97C149.98 663.01 157.9 652.14 157.9 652.14C157.9 652.14 159.14 636.83 161.36 636.33C163.58 635.83 162.84 613.6 162.84 613.6L165.31 590.38C165.31 590.38 168.53 538.49 167.79 536.51C167.05 534.53 167.54 524.65 170.01 519.96C172.48 515.27 174.44 472.03 174.44 472.03C174.44 472.03 173.94 450.78 175.92 446.83C177.04 444.59 177.6 435.98 177.92 428.95C178.12 423.6 178.18 419.16 178.18 419.16L205.84 408.78L241.44 397.42L271.34 411.74L315.07 420.14L315.62 427.69L323.93 542.98L328.63 586.47C328.63 586.47 330.63 606.97 330.86 610.67C331.09 614.37 333.57 638.6 333.57 638.6C333.57 638.6 338.76 650.21 335.57 654.16C332.38 658.11 333.57 661.33 333.57 661.33C333.57 661.33 343.7 674.13 341.44 679.32Z" fill="#3F3D56"/>
<path opacity="0.1" d="M289.6 181.72L278.24 384.2L216.46 371.23L204.23 290.06L216.34 181.1L225.46 182.27L241.55 184.32L257.48 185.31L274.74 183.38L289.6 181.72Z" fill="black"/>
<path d="M289.6 183.21L278.24 385.68L216.46 372.71L204.23 291.54L216.34 182.59L225.46 183.75L241.55 185.8L257.48 186.79L274.74 184.86L289.6 183.21Z" fill="#6C63FF"/>
<path d="M238.82 188.64L261.06 189.38L254.81 198.13C254.81 198.13 255.25 215.81 258.22 220.88C261.19 225.95 260.32 304.27 260.32 304.27L254.44 315.51L244.31 302.91L244.43 199.51L238.82 188.64Z" fill="#3F3D56"/>
<path opacity="0.1" d="M238.82 188.64L261.06 189.38L254.81 198.13C254.81 198.13 255.25 215.81 258.22 220.88C261.19 225.95 260.32 304.27 260.32 304.27L254.44 315.51L244.31 302.91L244.43 199.51L238.82 188.64Z" fill="black"/>
<path opacity="0.1" d="M273.66 165.66L252.91 188.64L264.77 200.99L284.41 181.85L273.66 165.66Z" fill="black"/>
<path d="M272.29 165.69L252.9 187.15L264.76 199.51L284.44 180.36L274.83 165.88C274.699 165.67 274.519 165.493 274.307 165.365C274.095 165.237 273.855 165.161 273.608 165.142C273.361 165.124 273.113 165.164 272.884 165.259C272.655 165.354 272.451 165.502 272.29 165.69Z" fill="#6C63FF"/>
<path opacity="0.1" d="M244.14 187.53L223.14 166.53L221.16 177.52L230.8 201.61L244.14 187.53Z" fill="black"/>
<path d="M244.88 186.05L223.88 165.04L221.9 176.04L231.54 200.13L244.88 186.05Z" fill="#6C63FF"/>
<path opacity="0.1" d="M315.59 427.69C305.524 432.506 294.738 435.644 283.66 436.98C263.28 439.58 249.94 413.64 249.94 413.64L242.16 423.77C239.69 434.52 202 437.23 186.69 433.15C183.513 432.369 180.526 430.954 177.91 428.99C178.11 423.64 178.17 419.2 178.17 419.2L205.84 408.78L241.44 397.42L271.34 411.74L315.07 420.14L315.59 427.69Z" fill="black"/>
<path opacity="0.1" d="M289.59 183.2L278.23 385.67L216.46 372.67L204.23 291.51L216.34 182.51L225.46 183.67C225.225 187.628 224.778 191.57 224.12 195.48C222.64 202.4 231.78 251.57 231.78 251.57C231.78 251.57 249.15 306.7 256.98 298.76C264.81 290.82 275.88 248.85 275.88 248.85C283.42 233.28 276.01 189.68 275.45 188.75C275.06 187.448 274.822 186.106 274.74 184.75L289.59 183.2Z" fill="black"/>
<path opacity="0.1" d="M316.28 339.84L316.8 359.68L311.09 364.86L307.2 316.86H315.72L316.28 339.84Z" fill="black"/>
<path opacity="0.1" d="M182.13 303.29V303.34C182.047 304.937 181.82 306.524 181.45 308.08C181.45 307.64 181.45 307.39 181.37 307.36C181.01 307.2 181.44 305.39 182.13 303.29Z" fill="black"/>
<path opacity="0.1" d="M193.07 316.87L189.18 364.87C189.18 364.87 183.34 359.58 175.78 352.68L176.68 344.18C176.68 344.18 179.87 323.28 181.03 312.98C181.544 314.353 182.216 315.661 183.03 316.88L193.07 316.87Z" fill="black"/>
<path d="M226.58 165.78C226.58 165.78 222.88 160.35 217.82 170.85C217.82 170.85 204.6 178.51 200.03 179.37C195.46 180.23 179.28 185.92 179.28 185.92C176.834 187.692 173.89 188.644 170.87 188.64C165.81 188.64 161.61 199.75 162.23 205.81C162.85 211.87 161.86 216.31 157.16 216.56C152.46 216.81 155.06 226.56 155.06 226.56L186.32 262.39C186.32 262.39 188.32 295.39 187.32 296.39C186.32 297.39 182.74 307.01 183.61 307.39C184.48 307.77 178.91 344.21 178.91 344.21L171.37 414.98C171.37 414.98 171.37 426.83 186.69 430.91C202.01 434.99 239.69 432.27 242.16 421.52L249.94 411.39C249.94 411.39 263.28 437.39 283.66 434.74C304.04 432.09 317.02 424.74 317.02 424.74L314.79 339.87L313.31 278.72L345.18 226.47C345.18 226.47 336.66 210.16 337.4 202.75C338.14 195.34 339.63 189.75 321.47 187.18C321.47 187.18 306.15 184.9 297.13 178.66C291.765 174.931 285.901 171.979 279.71 169.89C279.71 169.89 275.61 162.49 272.07 165.69C272.07 165.69 274.65 177.05 274.34 179.09C274.03 181.13 274.89 190.15 275.45 191.09C276.01 192.03 283.45 235.62 275.88 251.19C275.88 251.19 264.81 293.19 256.98 301.09C249.15 308.99 231.78 253.9 231.78 253.9C231.78 253.9 222.64 204.74 224.12 197.82C225.6 190.9 226.58 165.78 226.58 165.78Z" fill="#3F3D56"/>
<path d="M253.03 327.75C256.034 327.75 258.47 325.315 258.47 322.31C258.47 319.306 256.034 316.87 253.03 316.87C250.026 316.87 247.59 319.306 247.59 322.31C247.59 325.315 250.026 327.75 253.03 327.75Z" fill="#3F3D56"/>
<path d="M253.03 353.38C256.034 353.38 258.47 350.944 258.47 347.94C258.47 344.936 256.034 342.5 253.03 342.5C250.026 342.5 247.59 344.936 247.59 347.94C247.59 350.944 250.026 353.38 253.03 353.38Z" fill="#3F3D56"/>
<path opacity="0.1" d="M253.03 327.75C256.034 327.75 258.47 325.315 258.47 322.31C258.47 319.306 256.034 316.87 253.03 316.87C250.026 316.87 247.59 319.306 247.59 322.31C247.59 325.315 250.026 327.75 253.03 327.75Z" fill="black"/>
<path opacity="0.1" d="M253.03 353.38C256.034 353.38 258.47 350.944 258.47 347.94C258.47 344.936 256.034 342.5 253.03 342.5C250.026 342.5 247.59 344.936 247.59 347.94C247.59 350.944 250.026 353.38 253.03 353.38Z" fill="black"/>
<path opacity="0.1" d="M301.87 671.91C301.87 671.91 324.18 673.64 326.41 675.37C328.64 677.1 301.87 671.91 301.87 671.91Z" fill="black"/>
<path opacity="0.1" d="M169.02 654.37C169.02 654.37 173.72 660.3 171.74 663.02C169.76 665.74 169.02 654.37 169.02 654.37Z" fill="black"/>
<path opacity="0.1" d="M174.7 675.72C174.7 675.72 183.35 670.04 186.81 673.82C190.27 677.6 174.7 675.72 174.7 675.72Z" fill="black"/>
<path opacity="0.1" d="M273.13 140.26V154.53C271.346 155.313 269.419 155.719 267.47 155.72H230.02C228.064 155.721 226.129 155.312 224.34 154.52V140.26C224.353 136.493 225.856 132.885 228.52 130.223C231.184 127.561 234.794 126.06 238.56 126.05H258.92C262.685 126.063 266.291 127.564 268.953 130.226C271.615 132.888 273.117 136.495 273.13 140.26Z" fill="black"/>
<path opacity="0.1" d="M227.59 78.98V89.52C227.59 90.13 227.348 90.715 226.916 91.1463C226.485 91.5777 225.9 91.82 225.29 91.82C224.68 91.82 224.095 91.5777 223.664 91.1463C223.232 90.715 222.99 90.13 222.99 89.52V80.65C224.409 79.8191 225.968 79.2533 227.59 78.98Z" fill="black"/>
<path d="M269.68 79.9399H227.8C221.173 79.9399 215.8 85.3125 215.8 91.9399V141.35C215.8 147.977 221.173 153.35 227.8 153.35H269.68C276.307 153.35 281.68 147.977 281.68 141.35V91.9399C281.68 85.3125 276.307 79.9399 269.68 79.9399Z" fill="#DCDFED"/>
<path opacity="0.1" d="M267.44 128.98V158.91H230.02V128.92C232.477 127.056 235.476 126.048 238.56 126.05H258.92C262.003 126.074 264.994 127.103 267.44 128.98Z" fill="black"/>
<path opacity="0.1" d="M267.88 79.9399H229.27V156.49H267.88V79.9399Z" fill="black"/>
<path d="M267.47 79.9399H230.02V156.49H267.47V79.9399Z" fill="#6F758D"/>
<path d="M244.88 106.35H232.77V108.59H244.88V106.35Z" fill="#DCDFED"/>
<path d="M265.02 106.35H252.91V108.59H265.02V106.35Z" fill="#DCDFED"/>
<path d="M258.96 131.09H238.52V132.43H258.96V131.09Z" fill="#DCDFED"/>
<path d="M505.76 213.44L520.24 284.98C520.407 285.773 520.823 286.492 521.428 287.032C522.032 287.571 522.793 287.904 523.6 287.98L533.25 288.92C533.961 290.168 534.605 291.454 535.18 292.77C536.9 296.77 538.02 301.57 541.73 303.94C543.73 305.94 548.24 305.59 550.82 305.6C553.531 305.5 556.239 305.876 558.82 306.71C558.521 306.675 558.219 306.675 557.92 306.71C559.6 307.382 561.225 308.185 562.78 309.11C562.9 309.27 563.03 309.43 563.13 309.59C563.54 310.22 563.87 310.98 564.56 311.29C564.36 311.69 565.31 311.7 566.83 311.49C566.979 311.517 567.124 311.564 567.26 311.63C567.667 311.902 568.008 312.261 568.26 312.68C570.77 316.02 575.43 316.85 579.63 316.96C583.83 317.07 588.27 316.78 591.97 318.77C592.85 319.24 593.67 319.83 594.59 320.23C594.541 320.667 594.558 321.108 594.64 321.54C595.073 322.923 595.636 324.262 596.32 325.54C596.658 326.189 596.843 326.907 596.86 327.638C596.877 328.37 596.727 329.096 596.42 329.76C596.11 330.3 595.61 330.76 595.29 331.26C594.859 332.133 594.643 333.096 594.66 334.07C594.37 338.62 594.09 343.26 595.33 347.64C596.05 350.19 597.27 352.84 596.47 355.36C595.99 356.88 594.8 358.17 594.63 359.75C594.46 361.33 595.46 362.99 596.05 364.58C597.44 368.35 596.68 372.87 595.72 376.76C595.781 376.794 595.845 376.824 595.91 376.85C595.204 377.68 594.618 378.606 594.17 379.6C592.64 382.89 592.74 386.68 592.85 390.3C593.06 397.11 593.29 404 595.18 410.54C595.502 411.47 595.724 412.432 595.84 413.41C595.87 414.333 595.79 415.256 595.6 416.16C595.15 418.78 594.6 421.39 593.95 423.97C593.586 425.075 593.44 426.24 593.52 427.4C593.71 428.91 594.66 430.22 595.29 431.62C597.8 437.2 595.1 444.07 597.54 449.68C598.12 451.01 598.97 452.21 599.47 453.57C600.57 456.57 599.95 459.81 600.32 462.93C600.719 465.136 601.261 467.314 601.94 469.45C603.71 476.39 600.78 483.79 602.49 490.75C603.95 496.75 605.43 502.75 605.49 508.86C605.58 513.13 604.99 517.4 605.49 521.64C605.99 525.88 607.75 530.25 611.38 532.51C613.311 533.61 615.471 534.246 617.69 534.37C621.99 556.74 621.74 579.8 625.48 602.29C626.23 606.83 627.15 611.29 627.61 615.92C629.74 637.32 621.75 658.09 617.24 679.24L616.52 679.68C610.97 683.14 605.06 687.04 602.86 693.16C602.18 695.05 602.02 697.46 603.54 698.79C604.107 699.158 604.642 699.573 605.14 700.03C606.35 701.49 605.29 704.11 606.75 705.31C607.706 705.47 608.671 705.57 609.64 705.61C608.973 707.197 608.307 708.787 607.64 710.38C607.03 711.79 606.41 713.33 606.79 714.82C607.139 715.765 607.606 716.662 608.18 717.49C609.229 719.74 609.716 722.211 609.6 724.69C609.511 725.512 609.736 726.337 610.23 727C610.505 727.253 610.823 727.452 611.17 727.59C615.619 729.542 620.501 730.292 625.331 729.765C630.16 729.239 634.766 727.454 638.69 724.59C639.067 724.348 639.388 724.027 639.63 723.65C639.751 723.391 639.842 723.12 639.9 722.84C640.53 720.25 641.17 717.66 641.8 715.07C641.88 714.77 641.95 714.46 642.03 714.16C642.77 711.1 643.52 708.05 644.27 704.99C645.27 700.69 646.36 696.38 647.09 691.99C647.09 694.43 647.09 696.86 647.09 699.3V707.84C647.068 709.098 647.111 710.356 647.22 711.61C648.27 711.61 649.32 711.61 650.37 711.61C650.446 711.621 650.523 711.611 650.594 711.581C650.664 711.551 650.725 711.502 650.77 711.44C650.912 711.126 650.98 710.784 650.97 710.44C651.123 707.32 651.233 704.193 651.3 701.06C651.43 695.58 651.45 690.06 651.35 684.6C651.35 683.36 651.47 680.81 651.27 679.1C651.786 677.889 652.214 676.643 652.55 675.37C653.06 673.65 653.55 671.91 653.97 670.16C654.633 670.067 655.307 670.067 655.97 670.16C655.991 680.259 655.009 690.335 653.04 700.24C654.98 702.05 658.41 701 659.97 698.84C661.53 696.68 661.73 693.84 661.97 691.24C662.7 682.56 664.1 673.95 665.51 665.35C665.658 663.868 666.082 662.426 666.76 661.1C667.43 659.96 668.48 659.1 669.07 657.88C669.691 656.361 669.877 654.699 669.61 653.08C669.25 649.29 668.31 645.43 665.99 642.39C663.81 639.54 660.19 637.6 656.64 638.02L656.42 637.62C654.36 633.49 654.57 628.62 654.83 624.06C655.117 618.873 655.41 613.687 655.71 608.5C656.56 602.78 657.23 597.06 657.63 591.33C658.63 587.65 659.98 584.07 660.88 580.33C660.88 576.7 662.17 572.92 662.21 569.19C662.226 565.31 661.935 561.434 661.34 557.6C660.2 549.72 658.14 542.01 656.43 534.25C656.15 532.94 655.97 531.55 655.78 530.18C656.939 529.504 658.007 528.684 658.96 527.74C657.21 514.14 655.62 499.54 662.06 487.42C663.97 483.84 666.58 480.42 667.25 476.42C667.42 475.42 667.47 474.36 667.68 473.35C667.975 472.156 668.394 470.997 668.93 469.89L681.67 441.04L683.73 436.4C685.94 431.4 688.15 426.4 690.04 421.23C692.26 415.23 694.04 409 695.71 402.81C696.71 399.1 697.71 395.32 697.64 391.48C697.456 388.07 696.653 384.722 695.27 381.6C694.97 380.89 694.65 380.19 694.27 379.49C694.66 379.37 695.04 379.28 695.42 379.16C696.27 373.11 696.99 366.44 693.58 361.38C692.913 360.575 692.377 359.671 691.99 358.7C691.38 356.63 692.7 354.52 693.12 352.4C693.98 348.07 691.06 344 688.56 340.35C688.178 339.863 687.881 339.315 687.68 338.73C687.22 337.07 688.23 335.22 688.25 333.54C688.253 333.094 688.154 332.652 687.96 332.25C697.61 332.81 707.13 335.33 716.81 335.7C722.94 335.94 729.81 334.98 733.7 330.3C736.19 327.3 737.08 323.35 737.32 319.49C737.76 312.38 736.32 305.3 735.12 298.27C734.34 293.5 733.72 288.7 733.23 283.88C734.23 283.97 735.23 284.02 736.23 284.02C741.96 284.02 747.92 283.18 752.66 280.02C757.4 276.86 760.57 270.83 759.08 265.34C758.24 262.24 756.08 259.68 754.5 256.89C748.92 247.04 750.5 234.51 755.3 224.24C757.55 219.38 760.53 214.34 759.63 209.06C758.35 201.66 750.38 197.81 744.4 193.21C739.201 189.126 735.094 183.818 732.449 177.759C729.803 171.7 728.701 165.079 729.24 158.49C729.7 153.62 731.03 148.49 729.08 144C726.98 139.19 721.79 136.66 717.42 133.74C710.633 129.182 705.161 122.924 701.55 115.59C699.32 111.03 697.48 106.85 692.22 105.29C687.991 104.18 683.557 104.098 679.29 105.05L680.17 104.63C679.77 104.7 679.37 104.78 678.99 104.87L678.37 105.04C674.341 104.163 670.169 104.187 666.15 105.11C658.02 107.06 649.15 112.9 642.49 117.71C640.496 119.097 638.665 120.704 637.03 122.5C636.86 122.69 636.67 122.86 636.5 123.05C635.698 123.935 635.025 124.928 634.5 126C634.154 126.782 633.895 127.601 633.73 128.44C633.041 130.747 632.76 133.156 632.9 135.56C632.54 136.06 632.19 136.56 631.9 137.09C627.65 143.833 626.139 151.945 627.674 159.766C629.21 167.586 633.676 174.525 640.16 179.16C638.963 181.889 637.548 184.518 635.93 187.02C634.21 189.8 632.39 192.53 630.53 195.22L610.53 201.42C609.27 201.82 608.01 202.21 606.8 202.72C605.335 203.343 603.962 204.164 602.72 205.16C600.716 206.739 599.157 208.812 598.196 211.175C597.236 213.538 596.906 216.111 597.24 218.64C597.33 219.16 597.45 219.64 597.57 220.18C596.97 223.24 596.51 226.35 596.05 229.44C595.45 233.61 594.85 237.78 594.3 241.96C592.247 246.102 591.349 250.721 591.7 255.33C591.768 258.116 592.011 260.895 592.43 263.65C592.36 266.1 592.33 268.55 592.43 271C592.62 274.107 592.62 277.223 592.43 280.33C592.087 283.168 591.532 285.975 590.77 288.73C590.742 288.982 590.662 289.225 590.535 289.443C590.407 289.662 590.235 289.852 590.03 290L589.8 290.06L588.46 289.93L586.98 289.76C586.977 289.549 586.961 289.339 586.93 289.13L571.16 211.98C570.976 211.126 570.504 210.362 569.823 209.816C569.142 209.269 568.293 208.974 567.42 208.98H509.49C508.936 208.98 508.388 209.102 507.886 209.336C507.383 209.571 506.939 209.913 506.583 210.339C506.227 210.764 505.969 211.262 505.827 211.798C505.685 212.334 505.662 212.894 505.76 213.44ZM689.28 305.55C689.403 305.231 689.547 304.92 689.71 304.62C690.3 303.62 691.16 302.8 691.71 301.79C691.991 301.221 692.138 300.595 692.138 299.96C692.138 299.325 691.991 298.699 691.71 298.13C691.14 297.13 692.71 296.18 693.17 295.13C693.386 294.284 693.437 293.405 693.32 292.54C693.495 291.085 694.058 289.703 694.95 288.54C696.05 286.8 697.16 285.08 698.29 283.36C698.62 282.84 698.97 282.36 699.29 281.82C699.475 282.164 699.678 282.498 699.9 282.82C700.721 283.746 701.346 284.827 701.74 286C701.81 286.822 701.81 287.648 701.74 288.47C701.74 291.03 703.36 293.28 704.59 295.54C705.82 297.8 706.72 300.63 705.44 302.86C704.99 303.64 704.44 304.86 705.21 305.22C705.64 305.42 706.21 305.22 706.58 305.5C707.1 305.97 706.39 306.76 705.74 307.05C703.596 307.975 701.285 308.452 698.95 308.452C696.615 308.452 694.304 307.975 692.16 307.05C691.26 306.58 690.28 306.04 689.28 305.55ZM566.28 292.17L582.28 293.74C580.954 294.39 579.485 294.693 578.01 294.62L574.13 293.46C574.13 293.46 574.13 293.72 574 294.16C573.27 293.97 572.53 293.79 571.8 293.62C569.93 293.18 568.09 292.69 566.26 292.17H566.28Z" fill="url(#paint1_linear_125_515)"/>
<path d="M689.53 118.98C693.097 126.245 698.502 132.451 705.21 136.98C709.54 139.89 714.66 142.41 716.74 147.19C718.68 151.65 717.36 156.76 716.91 161.61C716.368 168.156 717.454 174.735 720.072 180.759C722.689 186.784 726.756 192.068 731.91 196.14C737.82 200.71 745.71 204.55 746.97 211.91C747.87 217.16 744.97 222.18 742.69 227.01C737.99 237.23 736.38 249.69 741.9 259.48C743.47 262.27 745.59 264.81 746.43 267.89C747.91 273.36 744.77 279.32 740.08 282.5C735.39 285.68 729.5 286.5 723.84 286.5C719.72 286.5 715.26 285.88 712.34 282.99C710.34 281.05 709.4 278.35 708.48 275.76L701.32 255.52C700.02 251.88 698.66 248.1 695.95 245.34C690.21 239.48 680.83 240.1 672.63 240.2C660.546 240.343 648.523 238.446 637.07 234.59C630.37 232.33 623.07 228.48 621.52 221.59C619.99 214.85 624.6 208.43 628.66 202.84C631.7 198.673 634.573 194.39 637.28 189.99C639.92 185.71 642.45 181.21 643.17 176.24C644.38 167.98 640.51 159.96 637.51 152.17C634.51 144.38 632.42 135.17 636.78 128.05C638.66 125.28 641.061 122.902 643.85 121.05C650.4 116.26 659.2 110.46 667.24 108.51C671.55 107.504 676.04 107.566 680.32 108.69C685.5 110.26 687.32 114.41 689.53 118.98Z" fill="#3F3D56"/>
<path d="M601.26 215.44C599.653 220.92 598.512 226.527 597.85 232.2C595.85 245.91 593.85 259.7 594.23 273.54C594.415 276.634 594.415 279.736 594.23 282.83C593.889 285.65 593.341 288.441 592.59 291.18C592.563 291.431 592.484 291.673 592.356 291.89C592.228 292.107 592.056 292.295 591.85 292.44C591.38 292.67 590.85 292.44 590.3 292.38C588.52 292.16 587.21 293.88 585.83 295.04C584.488 296.124 582.847 296.773 581.126 296.899C579.405 297.026 577.687 296.625 576.2 295.75C576.657 297.785 576.511 299.908 575.781 301.861C575.052 303.815 573.769 305.513 572.09 306.75C570.387 307.956 568.444 308.779 566.394 309.164C564.343 309.549 562.234 309.486 560.21 308.98C562.26 308.66 564.21 310.1 565.37 311.85C565.77 312.48 566.09 313.23 566.77 313.54C567.45 313.85 568.64 313.46 569.44 313.88C569.84 314.139 570.181 314.48 570.44 314.88C572.92 318.21 577.53 319.03 581.68 319.14C585.83 319.25 590.22 318.97 593.88 320.94C594.751 321.488 595.649 321.992 596.57 322.45C599.45 323.64 602.89 322.45 605.13 320.32C607.37 318.19 608.61 315.18 609.53 312.21C613.23 300.21 612.53 287.3 611.75 274.74C610.53 254.76 607.99 234.31 601.26 215.44Z" fill="#454B69"/>
<path opacity="0.1" d="M601.26 215.44C599.653 220.92 598.512 226.527 597.85 232.2C595.85 245.91 593.85 259.7 594.23 273.54C594.415 276.634 594.415 279.736 594.23 282.83C593.889 285.65 593.341 288.441 592.59 291.18C592.563 291.431 592.484 291.673 592.356 291.89C592.228 292.107 592.056 292.295 591.85 292.44C591.38 292.67 590.85 292.44 590.3 292.38C588.52 292.16 587.21 293.88 585.83 295.04C584.488 296.124 582.847 296.773 581.126 296.899C579.405 297.026 577.687 296.625 576.2 295.75C576.657 297.785 576.511 299.908 575.781 301.861C575.052 303.815 573.769 305.513 572.09 306.75C570.387 307.956 568.444 308.779 566.394 309.164C564.343 309.549 562.234 309.486 560.21 308.98C562.26 308.66 564.21 310.1 565.37 311.85C565.77 312.48 566.09 313.23 566.77 313.54C567.45 313.85 568.64 313.46 569.44 313.88C569.84 314.139 570.181 314.48 570.44 314.88C572.92 318.21 577.53 319.03 581.68 319.14C585.83 319.25 590.22 318.97 593.88 320.94C594.751 321.488 595.649 321.992 596.57 322.45C599.45 323.64 602.89 322.45 605.13 320.32C607.37 318.19 608.61 315.18 609.53 312.21C613.23 300.21 612.53 287.3 611.75 274.74C610.53 254.76 607.99 234.31 601.26 215.44Z" fill="black"/>
<path d="M661.97 581.24C660.97 585.57 659.22 589.73 658.29 594.09C657.598 597.834 657.19 601.625 657.07 605.43L656 624.71C655.74 629.28 655.53 634.09 657.56 638.19C658.97 641.03 661.41 643.41 662.11 646.51C663.19 651.36 659.72 655.93 656.48 659.7L640.48 678.21C635.48 684.01 630.01 690.11 622.6 692.08C621.496 692.451 620.307 692.493 619.18 692.2C617.11 691.52 616.11 689.02 616.41 686.86C616.881 684.728 617.855 682.739 619.25 681.06C623.43 675.19 627.92 669.41 630.64 662.73C634.09 654.24 634.44 644.83 634.23 635.66C633.44 598.28 624.01 561.33 625.08 523.98C633.24 523.36 641.72 521.98 649.89 522.08C657.18 522.16 656.31 529.59 657.58 535.43C659.27 543.16 661.3 550.82 662.44 558.66C663.023 562.475 663.307 566.33 663.29 570.19C663.25 573.87 661.97 577.63 661.97 581.24Z" fill="#FBBEBE"/>
<path opacity="0.05" d="M661.97 581.24C660.97 585.57 659.22 589.73 658.29 594.09C657.598 597.834 657.19 601.625 657.07 605.43L656 624.71C655.74 629.28 655.53 634.09 657.56 638.19C658.97 641.03 661.41 643.41 662.11 646.51C663.19 651.36 659.72 655.93 656.48 659.7L640.48 678.21C635.48 684.01 630.01 690.11 622.6 692.08C621.496 692.451 620.307 692.493 619.18 692.2C617.11 691.52 616.11 689.02 616.41 686.86C616.881 684.728 617.855 682.739 619.25 681.06C623.43 675.19 627.92 669.41 630.64 662.73C634.09 654.24 634.44 644.83 634.23 635.66C633.44 598.28 624.01 561.33 625.08 523.98C633.24 523.36 641.72 521.98 649.89 522.08C657.18 522.16 656.31 529.59 657.58 535.43C659.27 543.16 661.3 550.82 662.44 558.66C663.023 562.475 663.307 566.33 663.29 570.19C663.25 573.87 661.97 577.63 661.97 581.24Z" fill="black"/>
<path d="M657.14 638.67C660.85 637.91 664.74 639.92 667.03 642.94C669.32 645.96 670.25 649.8 670.61 653.58C670.874 655.189 670.691 656.839 670.08 658.35C669.49 659.52 668.46 660.42 667.79 661.55C667.119 662.871 666.699 664.306 666.55 665.78C665.17 674.33 663.78 682.9 663.05 691.53C662.83 694.16 662.62 696.95 661.05 699.09C659.48 701.23 656.13 702.29 654.21 700.48C656.151 690.629 657.119 680.611 657.1 670.57C652.74 669.97 648.95 673.4 646.1 676.75C643.186 680.174 640.513 683.796 638.1 687.59C635.9 691.08 633.89 694.73 631.1 697.76C628.241 700.792 624.686 703.082 620.743 704.43C616.8 705.779 612.587 706.146 608.47 705.5C607.03 704.31 608.08 701.7 606.88 700.25C606.403 699.785 605.888 699.36 605.34 698.98C603.84 697.66 603.99 695.27 604.67 693.39C606.85 687.29 612.67 683.39 618.17 679.98C628.11 673.74 638.17 667.59 648.17 661.54C651.994 659.197 654.91 655.626 656.44 651.41C656.8 650.37 658.36 638.26 657.14 638.67Z" fill="#3F3D56"/>
<path opacity="0.05" d="M657.14 638.67C660.85 637.91 664.74 639.92 667.03 642.94C669.32 645.96 670.25 649.8 670.61 653.58C670.874 655.189 670.691 656.839 670.08 658.35C669.49 659.52 668.46 660.42 667.79 661.55C667.119 662.871 666.699 664.306 666.55 665.78C665.17 674.33 663.78 682.9 663.05 691.53C662.83 694.16 662.62 696.95 661.05 699.09C659.48 701.23 656.13 702.29 654.21 700.48C656.151 690.629 657.119 680.611 657.1 670.57C652.74 669.97 648.95 673.4 646.1 676.75C643.186 680.174 640.513 683.796 638.1 687.59C635.9 691.08 633.89 694.73 631.1 697.76C628.241 700.792 624.686 703.082 620.743 704.43C616.8 705.779 612.587 706.146 608.47 705.5C607.03 704.31 608.08 701.7 606.88 700.25C606.403 699.785 605.888 699.36 605.34 698.98C603.84 697.66 603.99 695.27 604.67 693.39C606.85 687.29 612.67 683.39 618.17 679.98C628.11 673.74 638.17 667.59 648.17 661.54C651.994 659.197 654.91 655.626 656.44 651.41C656.8 650.37 658.36 638.26 657.14 638.67Z" fill="black"/>
<path d="M658.76 570.39C660.76 595.39 655.16 620.23 650.18 644.78C649.708 646.746 649.453 648.758 649.42 650.78C649.616 653.28 650.02 655.758 650.63 658.19C652.51 668.32 650.1 678.71 647.71 688.74C646.04 695.68 643.71 703.52 637.23 706.55C632.66 708.69 627.32 707.76 622.37 706.78C620.735 706.609 619.18 705.986 617.88 704.98C616.1 703.3 616.03 700.53 616.18 698.09C617.9 670.52 631.86 644.09 629.18 616.59C628.73 612.04 627.82 607.54 627.07 603.03C623.21 579.64 623.67 555.63 618.78 532.44C618.54 531.638 618.54 530.783 618.78 529.98C619.203 529.186 619.874 528.55 620.69 528.17C625.21 525.47 630.04 523.06 635.25 522.33C639.32 521.76 644.45 522.2 647.87 524.73C651.46 527.38 651.7 533.08 652.75 537.24C655.44 548.12 657.86 559.16 658.76 570.39Z" fill="#FBBEBE"/>
<path d="M652.22 710.65C652.232 710.994 652.164 711.337 652.02 711.65C651.977 711.712 651.918 711.762 651.85 711.793C651.781 711.825 651.705 711.838 651.63 711.83C650.63 711.83 649.55 711.83 648.52 711.83C648.408 710.58 648.361 709.325 648.38 708.07V699.58C648.38 692.84 648.38 686.09 648.68 679.39C648.678 679.145 648.715 678.902 648.79 678.67C648.859 678.522 648.98 678.405 649.13 678.34C649.87 677.99 651.6 676.91 652.24 678.16C652.88 679.41 652.59 683.31 652.62 684.94C652.72 690.39 652.71 695.86 652.62 701.31C652.5 704.423 652.367 707.536 652.22 710.65Z" fill="#3F3D56"/>
<path d="M597.7 415.13C597.729 416.049 597.649 416.969 597.46 417.87C597.01 420.47 596.46 423.06 595.83 425.63C595.47 426.732 595.324 427.893 595.4 429.05C595.59 430.55 596.53 431.85 597.15 433.24C599.63 438.79 596.96 445.63 599.38 451.24C599.95 452.56 600.79 453.76 601.29 455.11C602.38 458.05 601.76 461.31 602.13 464.42C602.52 466.616 603.055 468.784 603.73 470.91C605.48 477.81 602.58 485.17 604.27 492.1C605.72 498.03 607.17 504.01 607.27 510.1C607.35 514.34 606.77 518.59 607.27 522.81C607.77 527.03 609.51 531.37 613.1 533.62C615.94 535.39 619.44 535.62 622.8 535.62C629.25 535.74 635.73 535.55 642.17 535.05C648.61 534.55 655.54 533.5 660.08 528.92C658.35 515.39 656.78 500.87 663.15 488.81C665.03 485.25 667.61 481.9 668.28 477.92C668.44 476.92 668.49 475.87 668.7 474.86C668.992 473.676 669.407 472.526 669.94 471.43L682.54 442.73C683.207 441.19 683.873 439.65 684.54 438.11C686.72 433.11 688.91 428.11 690.79 423.02C692.98 417.02 694.72 410.86 696.39 404.7C697.39 401 698.39 397.25 698.29 393.42C698.116 390.028 697.323 386.696 695.95 383.59C695.2 381.78 694.34 380 693.45 378.26C668.471 372.375 642.766 370.175 617.15 371.73C613.074 371.814 609.033 372.487 605.15 373.73C602.488 374.663 600.088 376.22 598.15 378.27C597.272 379.224 596.55 380.311 596.01 381.49C594.51 384.77 594.6 388.54 594.71 392.14C594.92 398.91 595.15 405.77 597.02 412.27C597.344 413.197 597.571 414.156 597.7 415.13Z" fill="#3F3D56"/>
<path d="M615.21 696.78C618.998 699.651 623.448 701.522 628.15 702.22C632.29 702.83 636.84 702.39 640.15 699.79C643.91 696.79 645.15 691.79 646.27 687.11L647.7 680.88C648.22 678.64 648.7 676.4 649.13 674.14C650.222 668.176 650.558 662.098 650.13 656.05C653.52 657.37 655.56 661.41 655.78 665.05C656 668.69 654.88 672.25 653.85 675.75C653.44 677.446 652.815 679.082 651.99 680.62C651.38 681.62 650.59 682.54 650.07 683.62C649.42 685.211 649.047 686.902 648.97 688.62C648.197 694.233 647.082 699.793 645.63 705.27L643.41 714.39L643.19 715.3L641.24 722.98C641.189 723.258 641.098 723.528 640.97 723.78C640.737 724.157 640.422 724.478 640.05 724.72C636.173 727.561 631.614 729.329 626.835 729.846C622.056 730.362 617.225 729.608 612.83 727.66C612.49 727.519 612.176 727.323 611.9 727.08C611.415 726.417 611.197 725.596 611.29 724.78C611.4 722.315 610.916 719.859 609.88 717.62C609.312 716.795 608.852 715.901 608.51 714.96C608.13 713.48 608.74 711.96 609.34 710.55L613.93 699.8C614.44 698.53 614.38 697.88 615.21 696.78Z" fill="#3F3D56"/>
<path d="M625.99 249.24C626.16 251.622 626.627 253.974 627.38 256.24C627.945 257.872 628.927 259.327 630.23 260.46C632.37 257.57 636.23 256.58 639.07 254.46C641.58 252.61 643.35 249.96 645.22 247.46C648.9 242.54 653.22 238.08 657.22 233.38C657.82 232.67 658.41 231.96 658.99 231.23C661.024 228.754 662.866 226.126 664.5 223.37C667.82 217.66 670.09 211.09 675.08 206.76C677.8 204.41 681.21 202.85 683.63 200.18C681.99 197.77 681.38 194.85 680.8 191.99C680.186 189.229 679.712 186.439 679.38 183.63C679.29 182.89 679.24 182.14 679.21 181.39C679.21 181.07 679.21 180.75 679.16 180.39C679.16 178.1 680.64 174.16 678.3 172.87C676.14 171.68 672.61 171.67 670.09 171.7H669.68C663.795 171.759 658.056 173.539 653.17 176.82C652.061 177.502 651.091 178.388 650.31 179.43C649 181.43 648.93 183.83 649.03 186.22C649.03 186.77 649.08 187.31 649.12 187.84C649.12 188.1 649.12 188.37 649.12 188.64C649.21 191.3 648.95 194.15 647.12 195.99C645.12 197.99 641.94 198.08 639.23 198.93C638.78 199.07 638.35 199.23 637.93 199.4C634.945 200.747 632.398 202.906 630.58 205.63C628.539 208.754 627.095 212.23 626.32 215.88C625.557 219.166 625.082 222.512 624.9 225.88C624.38 233.61 625.18 241.49 625.99 249.24Z" fill="#FBBEBE"/>
<path opacity="0.1" d="M649.07 187.84C649.07 188.1 649.07 188.37 649.07 188.64C652.39 189.85 660.47 186.45 664.21 186.45C671.63 186.45 673.92 187.92 679.29 183.59C679.17 182.53 679.1 181.46 679.07 180.39C679.07 178.1 680.55 174.16 678.21 172.87C675.87 171.58 672.12 171.67 669.59 171.7C663.705 171.759 657.966 173.539 653.08 176.82C651.971 177.502 651.001 178.388 650.22 179.43C648.65 181.83 648.9 184.98 649.07 187.84Z" fill="black"/>
<path d="M628.52 156.91C628.519 161.011 629.326 165.072 630.895 168.861C632.464 172.65 634.764 176.093 637.665 178.992C640.565 181.892 644.008 184.191 647.798 185.759C651.588 187.327 655.649 188.133 659.75 188.13C668.028 188.125 675.966 184.834 681.82 178.98C687.674 173.126 690.965 165.188 690.97 156.91C690.824 148.725 687.469 140.925 681.629 135.189C675.79 129.453 667.931 126.239 659.745 126.239C651.559 126.239 643.7 129.453 637.861 135.189C632.021 140.925 628.666 148.725 628.52 156.91Z" fill="#FBBEBE"/>
<path d="M681.05 193.81C682.033 192.987 683.236 192.473 684.51 192.33C686.35 192.33 687.86 193.84 688.62 195.51C689.38 197.18 689.62 199.04 690.27 200.76C691.16 203.085 692.781 205.057 694.89 206.38C696.36 207.3 698.11 207.94 699.12 209.38C700.71 211.63 699.74 214.77 698.4 217.18C693.4 226.18 684.4 232.04 675.69 237.56L665.89 243.78C661.961 246.38 657.895 248.767 653.71 250.93C646.91 254.28 639.56 256.43 632.8 259.85C629.69 261.42 626.64 263.29 623.2 263.85C622.476 261.537 622.019 259.148 621.84 256.73C620.17 241.82 618.52 226.59 621.84 211.96C622.46 209.17 623.33 206.32 625.29 204.25C626.574 203.029 628.042 202.016 629.64 201.25C633.606 199.119 637.685 197.206 641.86 195.52C643.815 194.571 645.967 194.095 648.14 194.13C647.958 195.762 647.473 197.346 646.71 198.8L630.96 233.86C629.96 236.06 628.96 238.36 629.04 240.78C629.16 244.22 631.48 247.57 630.53 250.88C639.673 237.535 650.168 225.17 661.85 213.98C662.366 213.552 662.791 213.025 663.1 212.43C663.386 211.494 663.447 210.504 663.28 209.54C663.17 207.7 663.55 205.24 665.09 204.01C666.16 203.15 667.74 202.9 668.92 202.15C673.06 199.54 677.02 196.59 681.05 193.81Z" fill="#6C63FF"/>
<path opacity="0.1" d="M597.58 381.04C605.35 385.18 614.11 387.2 622.88 388.04C631.65 388.88 640.47 388.53 649.27 388.19C655.95 387.95 662.62 387.68 669.27 387.44C678.35 387.08 687.27 386.35 695.95 383.61C695.2 381.8 694.34 380.02 693.45 378.28C668.471 372.395 642.766 370.195 617.15 371.75C613.074 371.834 609.033 372.507 605.15 373.75C602.488 374.683 600.088 376.24 598.15 378.29C598.01 379.22 597.79 380.14 597.58 381.04Z" fill="black"/>
<path d="M598.99 283.45C602.45 295.14 600.08 307.93 597.92 319.92C596.63 320.57 596.23 322.3 596.51 323.72C596.942 325.101 597.497 326.439 598.17 327.72C598.505 328.365 598.689 329.077 598.706 329.803C598.723 330.53 598.574 331.25 598.27 331.91C597.96 332.46 597.47 332.91 597.15 333.41C596.727 334.279 596.515 335.234 596.53 336.2C596.24 340.73 595.97 345.34 597.19 349.7C597.9 352.24 599.11 354.88 598.31 357.38C597.84 358.89 596.67 360.17 596.5 361.75C596.33 363.33 597.32 364.97 597.9 366.56C599.27 370.3 598.53 374.8 597.58 378.67C605.35 382.81 614.11 384.83 622.88 385.67C631.65 386.51 640.47 386.16 649.27 385.83L669.27 385.07C678.42 384.71 687.42 383.97 696.15 381.18C696.99 375.18 697.7 368.53 694.33 363.5C693.671 362.697 693.141 361.796 692.76 360.83C692.16 358.77 693.46 356.68 693.88 354.57C694.73 350.26 691.88 346.21 689.36 342.57C688.988 342.083 688.698 341.54 688.5 340.96C688.04 339.3 689.04 337.47 689.06 335.8C689.068 335.314 688.958 334.834 688.74 334.4C688.37 333.7 687.68 333.22 687.3 332.52C686.911 331.613 686.793 330.613 686.96 329.64C687.42 323.393 688.173 317.177 689.22 310.99C689.32 310.43 689.42 309.86 689.55 309.3C689.74 308.444 690.049 307.619 690.47 306.85C691.05 305.85 691.9 305.04 692.47 304.03C692.751 303.466 692.897 302.845 692.897 302.215C692.897 301.585 692.751 300.964 692.47 300.4C691.9 299.35 693.47 298.45 693.92 297.4C694.133 296.561 694.181 295.688 694.06 294.83C694.235 293.378 694.791 291.999 695.67 290.83C696.76 289.1 697.86 287.39 698.98 285.68C703.96 277.967 709.137 270.39 714.51 262.95C717.13 259.37 719.773 255.823 722.44 252.31C724.59 249.48 726.8 246.6 727.88 243.21C728.07 242.621 728.22 242.019 728.33 241.41C728.926 238.156 728.456 234.796 726.99 231.83C725.71 229.27 723.76 227.14 722.05 224.83C720.15 222.27 718.52 219.47 716.34 217.15C714.16 214.83 711.22 212.97 708.03 212.97C706.18 212.97 704.03 213.49 702.74 212.17C702.27 211.69 702.02 211.05 701.54 210.6C700.18 209.31 697.96 210.19 696.33 211.11L665.06 228.78L659.99 231.66C659.07 232.21 658.13 232.75 657.21 233.31C652.84 235.847 648.653 238.687 644.68 241.81C638.88 246.45 632.47 250.73 627.42 256.17C626.95 256.67 626.48 257.17 626.03 257.72C625.117 251.36 624.207 244.99 623.3 238.61C622.965 236.777 622.845 234.911 622.94 233.05C623.183 231.219 623.632 229.42 624.28 227.69C624.48 227.08 624.7 226.45 624.9 225.83L628.27 215.72C629.92 210.77 631.68 205.62 635.41 201.97C636.314 201.198 637.144 200.345 637.89 199.42V199.37C638.24 198.907 638.478 198.368 638.583 197.797C638.689 197.226 638.661 196.638 638.5 196.08L612.16 204.3C610.92 204.69 609.67 205.08 608.48 205.59C607.043 206.217 605.698 207.034 604.48 208.02C602.496 209.597 600.955 211.661 600.007 214.012C599.058 216.362 598.736 218.918 599.07 221.43C599.33 223.07 599.91 224.65 600.25 226.27C600.85 229.21 601.8 232.61 600.52 235.33C599.24 238.05 598.09 240.48 596.89 243.05C595.898 245.01 595.075 247.05 594.43 249.15C593.717 252.019 593.431 254.978 593.58 257.93C593.734 264.522 594.874 271.055 596.96 277.31C597.59 279.37 598.37 281.39 598.99 283.45Z" fill="#454B69"/>
<path d="M652.75 298.26L590.29 292.38L579.38 291.15L589.41 294.7L652.75 298.26Z" fill="#3F3D56"/>
<path d="M654.15 301.28V296.58L587.94 293.31L584.72 296.08L654.15 301.28Z" fill="#3F3D56"/>
<path d="M653.94 292.32C652.55 291.95 651.06 292.02 649.65 291.69C647.83 291.25 646.19 290.13 644.33 289.9C643.181 289.818 642.025 289.902 640.9 290.15L632.33 291.65C631.67 291.76 630.89 291.97 630.66 292.6C630.599 292.887 630.616 293.184 630.709 293.462C630.803 293.74 630.969 293.988 631.19 294.18C632.72 295.81 635.19 296.04 637.41 296.18L643.41 296.54C644.572 296.511 645.724 296.772 646.76 297.3C647.279 297.579 647.679 298.037 647.887 298.588C648.094 299.14 648.096 299.748 647.89 300.3C647.566 300.837 647.089 301.265 646.52 301.53C644.137 302.841 641.398 303.359 638.7 303.01C636.526 302.595 634.395 301.986 632.33 301.19C627.068 299.507 621.517 298.922 616.02 299.47C614.6 299.61 612.93 300.02 612.42 301.36C612.285 301.831 612.267 302.328 612.368 302.807C612.469 303.286 612.686 303.734 613 304.11C615.13 307.11 619.38 307.19 623 307.99C626.392 308.767 629.531 310.395 632.12 312.72C631.33 314.35 631.99 316.28 632.78 317.91C633.685 319.775 634.759 321.552 635.99 323.22C636.651 324.255 637.581 325.091 638.68 325.64C639.406 325.895 640.17 326.027 640.94 326.03C648.359 326.488 655.805 326.082 663.13 324.82C663.919 324.766 664.667 324.453 665.26 323.93C665.637 323.42 665.875 322.82 665.95 322.19C666.71 318.457 667.377 314.703 667.95 310.93C668.31 308.55 668.46 306.05 667.29 303.86C666.38 302.14 664.94 301.58 663.47 300.42C660.19 297.84 658.15 293.44 653.94 292.32Z" fill="#FBBEBE"/>
<path d="M573.27 214.66L588.78 291.58C588.895 292.158 588.874 292.755 588.717 293.323C588.56 293.891 588.272 294.414 587.876 294.85C587.481 295.287 586.988 295.625 586.438 295.836C585.888 296.048 585.296 296.128 584.71 296.07L526.25 290.3C525.448 290.223 524.692 289.89 524.094 289.349C523.496 288.809 523.088 288.09 522.93 287.3L508.6 216.14C508.491 215.593 508.504 215.03 508.638 214.489C508.773 213.948 509.026 213.444 509.379 213.013C509.732 212.581 510.176 212.234 510.679 211.994C511.183 211.755 511.733 211.631 512.29 211.63H569.58C570.45 211.633 571.292 211.937 571.964 212.489C572.636 213.04 573.097 213.807 573.27 214.66Z" fill="#3F3D56"/>
<path d="M544.18 306.18C540.5 303.82 539.4 299.09 537.69 295.07C536.331 292.11 534.763 289.249 533 286.51C531.51 284.05 530 281.06 531.2 278.44C532.136 276.769 533.674 275.518 535.5 274.94C537.154 274.159 539.016 273.931 540.81 274.29C542.81 274.84 544.3 276.5 545.66 278.08L550.48 283.67C552.68 286.23 554.94 288.83 557.84 290.56C559.599 291.543 561.46 292.331 563.39 292.91C566.85 294.057 570.35 295.057 573.89 295.91C575.925 296.301 577.91 296.915 579.81 297.74C580.194 297.88 580.545 298.095 580.844 298.374C581.143 298.652 581.383 298.987 581.55 299.36C581.631 299.82 581.619 300.292 581.515 300.747C581.41 301.203 581.214 301.632 580.94 302.01C579.72 304.29 578.33 308.92 575.77 309.73C573.366 310.33 570.913 310.715 568.44 310.88C566 311.14 564.08 310.14 561.88 309.22C559.117 308.165 556.165 307.691 553.21 307.83C550.61 307.82 546.19 308.19 544.18 306.18Z" fill="#FBBEBE"/>
<path d="M576.19 295.75C576.19 295.75 574.03 310.55 560.19 308.96C560.19 308.96 567.52 311.89 566.75 313.52C565.98 315.15 583.75 310.34 583.75 310.34L584.67 302.62C584.67 302.62 585.26 298.37 584.67 298.25C584.08 298.13 576.19 295.75 576.19 295.75Z" fill="#454B69"/>
<path opacity="0.1" d="M576.19 295.75C576.19 295.75 574.03 310.55 560.19 308.96C560.19 308.96 567.52 311.89 566.75 313.52C565.98 315.15 583.75 310.34 583.75 310.34L584.67 302.62C584.67 302.62 585.26 298.37 584.67 298.25C584.08 298.13 576.19 295.75 576.19 295.75Z" fill="black"/>
<path opacity="0.1" d="M639.9 233.98C638.543 234.668 637.426 235.753 636.7 237.09C635.545 238.931 634.668 240.932 634.1 243.03C633.42 245.58 633.1 248.43 631.22 250.27" fill="black"/>
<path opacity="0.1" d="M697.87 274.91C696.859 278.507 697.278 282.355 699.04 285.65C704.02 277.937 709.197 270.36 714.57 262.92C717.15 259.36 719.773 255.823 722.44 252.31C724.59 249.48 726.8 246.6 727.88 243.21C728.07 242.621 728.22 242.019 728.33 241.41C726.995 239.456 725.011 238.039 722.73 237.41C719.1 247.93 709.9 255.47 703.33 264.46C700.853 267.558 698.998 271.107 697.87 274.91Z" fill="black"/>
<path opacity="0.1" d="M651.57 328.73L673.32 329.47C675.18 329.53 677.47 329.9 678.05 331.66C678.23 332.22 678.19 332.83 678.37 333.38C678.98 335.38 681.63 335.6 683.7 335.59C685.5 335.59 687.3 335.66 689.09 335.8C689.098 335.314 688.988 334.834 688.77 334.4C688.4 333.7 687.71 333.22 687.33 332.52C686.941 331.613 686.823 330.613 686.99 329.64C687.45 323.393 688.203 317.177 689.25 310.99C689.35 310.43 689.45 309.86 689.58 309.3C687.75 308.37 685.9 307.49 683.91 307.7C682.12 307.89 680.48 308.95 678.69 308.85C675.58 308.7 673.44 305.23 670.34 305.03C669.664 305.083 668.984 305.001 668.34 304.79C667.34 304.29 667.2 302.99 666.7 302.02C665.95 300.59 663.85 300.24 662.28 300.61C662.32 303.898 662.109 307.184 661.65 310.44C661.495 311.87 661.159 313.275 660.65 314.62C660.059 315.982 659.318 317.273 658.44 318.47C656.14 321.92 653.9 325.29 651.57 328.73Z" fill="black"/>
<path d="M723.87 236.19C727.74 237.19 730.48 240.79 731.61 244.62C732.74 248.45 732.54 252.52 732.44 256.5C732.053 271.298 733.057 286.1 735.44 300.71C736.58 307.71 738.04 314.71 737.61 321.82C737.37 325.66 736.5 329.62 734.03 332.57C730.15 337.23 723.39 338.18 717.33 337.95C706.45 337.52 695.77 334.34 684.88 334.4C682.81 334.4 680.17 334.17 679.55 332.2C679.37 331.64 679.41 331.04 679.23 330.48C678.66 328.72 676.37 328.35 674.51 328.28L652.75 327.55C655.08 324.11 657.32 320.73 659.65 317.29C660.525 316.09 661.27 314.799 661.87 313.44C662.374 312.09 662.71 310.682 662.87 309.25C663.331 305.998 663.539 302.714 663.49 299.43C665.06 299.06 667.16 299.43 667.91 300.84C668.42 301.84 668.58 303.11 669.56 303.61C670.204 303.824 670.885 303.902 671.56 303.84C674.66 304.04 676.81 307.52 679.91 307.67C681.7 307.77 683.35 306.67 685.13 306.52C687.95 306.23 690.47 308.09 693.06 309.23C695.178 310.155 697.464 310.632 699.775 310.632C702.086 310.632 704.372 310.155 706.49 309.23C707.13 308.95 707.83 308.16 707.31 307.69C706.96 307.38 706.38 307.62 705.96 307.41C705.16 307.02 705.74 305.84 706.19 305.07C707.45 302.85 706.56 300.07 705.34 297.79C704.12 295.51 702.56 293.3 702.53 290.79C702.6 289.975 702.6 289.155 702.53 288.34C702.14 287.173 701.521 286.096 700.71 285.17C698.48 281.91 698.16 277.6 699.13 273.76C700.212 269.947 702.015 266.376 704.44 263.24C711.04 254.26 720.24 246.72 723.87 236.19Z" fill="#454B69"/>
<path opacity="0.1" d="M665.02 228.81L659.95 231.69C661.505 232.408 663.097 233.043 664.72 233.59C676.14 237.43 672.07 242.75 684.12 242.59C692.33 242.5 701.7 241.87 707.44 247.73C710.16 250.49 711.52 254.27 712.81 257.92C713.4 259.57 713.99 261.24 714.57 262.92C717.15 259.36 719.773 255.823 722.44 252.31C724.59 249.48 726.8 246.6 727.88 243.21C729.054 239.443 728.735 235.369 726.99 231.83C725.71 229.27 723.76 227.14 722.05 224.83C720.15 222.27 718.52 219.47 716.34 217.15C714.16 214.83 711.22 212.97 708.03 212.97C706.18 212.97 704.03 213.49 702.74 212.17C702.27 211.69 702.02 211.05 701.54 210.6C700.18 209.31 697.96 210.19 696.33 211.11L665.02 228.81Z" fill="black"/>
<path d="M634.79 133.88C634.954 132.391 635.321 130.93 635.88 129.54C636.401 128.472 637.075 127.485 637.88 126.61C640.514 123.635 643.746 121.248 647.364 119.606C650.983 117.964 654.906 117.104 658.88 117.08C659.562 117.044 660.244 117.153 660.88 117.4C661.039 117.474 661.19 117.565 661.33 117.67C667.05 113.82 673.7 110.02 679.9 108.52C684.21 107.514 688.7 107.576 692.98 108.7C698.18 110.26 699.98 114.41 702.21 118.94C705.776 126.222 711.19 132.443 717.91 136.98C722.24 139.89 727.36 142.41 729.44 147.19C731.38 151.65 730.06 156.76 729.61 161.61C729.068 168.156 730.154 174.735 732.772 180.76C735.389 186.784 739.456 192.068 744.61 196.14C750.52 200.71 758.41 204.55 759.67 211.91C760.57 217.16 757.62 222.18 755.39 227.01C750.69 237.23 749.08 249.69 754.6 259.48C756.17 262.27 758.29 264.81 759.13 267.89C760.6 273.36 757.47 279.32 752.78 282.5C748.09 285.68 742.2 286.5 736.54 286.5C732.42 286.5 727.96 285.88 725.04 282.99C723.04 281.05 722.1 278.35 721.18 275.76C718.787 269.013 716.4 262.267 714.02 255.52C712.72 251.88 711.36 248.1 708.65 245.34C702.91 239.48 693.53 240.1 685.33 240.2C673.27 240.35 677.33 235.03 665.93 231.2C659.22 228.94 651.93 225.09 650.37 218.2C648.84 211.46 653.45 205.04 657.51 199.45C660.55 195.283 663.427 191 666.14 186.6C668.77 182.32 671.3 177.82 672.03 172.85C673.24 164.59 653.21 159.98 650.21 152.19C649.351 149.99 648.63 147.739 648.05 145.45C646.61 145.35 645.27 145.21 644.34 145.17C640.51 145 636.19 143.5 634.88 139.89C634.17 137.98 634.44 135.88 634.79 133.88Z" fill="#3F3D56"/>
<g opacity="0.1">
<path d="M668.51 114.66C667.874 114.413 667.192 114.304 666.51 114.34H666.23C670.485 111.663 675.107 109.619 679.95 108.27C680.32 108.18 680.72 108.11 681.11 108.04C676.865 109.994 672.8 112.316 668.96 114.98C668.819 114.861 668.669 114.754 668.51 114.66Z" fill="black"/>
<path d="M634.79 133.64C634.955 132.154 635.322 130.697 635.88 129.31C636.401 128.239 637.075 127.248 637.88 126.37C642.123 121.585 647.861 118.377 654.16 117.27C650.86 118.872 647.913 121.116 645.49 123.87C644.685 124.748 644.011 125.739 643.49 126.81C642.932 128.197 642.565 129.654 642.4 131.14C641.921 133.114 641.945 135.177 642.47 137.14C643.78 140.74 648.1 142.25 651.93 142.41C652.86 142.41 654.2 142.59 655.64 142.7C656.221 144.986 656.942 147.233 657.8 149.43C660.8 157.22 680.8 161.83 679.62 170.09C678.89 175.09 676.36 179.57 673.73 183.84C671.1 188.11 668.14 192.52 665.1 196.69C661.04 202.28 656.43 208.69 657.96 215.45C659.49 222.21 666.81 226.2 673.52 228.45C684.94 232.3 680.86 237.62 692.92 237.45C701.12 237.35 710.5 236.73 716.24 242.59C718.95 245.36 720.31 249.13 721.61 252.78C723.99 259.52 726.377 266.263 728.77 273.01C729.69 275.61 730.67 278.3 732.63 280.24C735.55 283.13 740.01 283.73 744.13 283.75C746.474 283.773 748.816 283.596 751.13 283.22C746.75 285.59 741.55 286.22 736.53 286.22C732.41 286.22 727.95 285.6 725.03 282.71C723.03 280.77 722.09 278.08 721.17 275.48C718.777 268.733 716.39 261.99 714.01 255.25C712.71 251.6 711.35 247.83 708.64 245.06C702.9 239.2 693.52 239.82 685.32 239.92C673.26 240.07 677.32 234.75 665.92 230.92C659.21 228.66 651.92 224.81 650.36 217.92C648.83 211.18 653.44 204.75 657.5 199.16C660.54 194.993 663.417 190.71 666.13 186.31C668.76 182.04 671.29 177.53 672.02 172.56C673.23 164.3 653.2 159.69 650.2 151.9C649.342 149.703 648.621 147.456 648.04 145.17C646.6 145.06 645.26 144.92 644.33 144.88C640.5 144.72 636.18 143.21 634.87 139.61C634.347 137.658 634.319 135.606 634.79 133.64Z" fill="black"/>
</g>
<defs>
<linearGradient id="paint0_linear_125_515" x1="244.86" y1="731.52" x2="244.86" y2="55.9298" gradientUnits="userSpaceOnUse">
<stop stop-color="#808080" stop-opacity="0.25"/>
<stop offset="0.54" stop-color="#808080" stop-opacity="0.12"/>
<stop offset="1" stop-color="#808080" stop-opacity="0.1"/>
</linearGradient>
<linearGradient id="paint1_linear_125_515" x1="632.75" y1="730.01" x2="632.75" y2="104.54" gradientUnits="userSpaceOnUse">
<stop stop-color="#808080" stop-opacity="0.25"/>
<stop offset="0.54" stop-color="#808080" stop-opacity="0.12"/>
<stop offset="1" stop-color="#808080" stop-opacity="0.1"/>
</linearGradient>
</defs>
</svg>
