<svg width="100" height="100" viewBox="0 0 100 100" fill="none" xmlns="http://www.w3.org/2000/svg">
<path d="M75.466 21.882C75.466 21.882 75.128 33.032 71.066 36.918C67.004 40.804 52.822 54.486 52.822 54.486L55.022 58.034L74.956 38.776C74.956 38.776 79.52 23.572 75.466 21.882Z" fill="#3FE2FD"/>
<path d="M48.606 33.876L40.666 37.256L32.388 36.918L41.004 43.336L48.606 33.876Z" fill="#3FE2FD"/>
<path d="M65.668 47.8979L62.966 56.176L64.824 64.7919L63.304 66.3119L56.546 56.852L65.668 47.8979Z" fill="#3FE2FD"/>
<path d="M38.976 56.1759C38.976 56.1759 36.104 68.5079 30.36 69.8599C30.36 69.8599 47.424 64.2839 41.848 56.5139L38.976 56.1759Z" fill="#3FE2FD"/>
<path d="M75.17 40.28C75.42 39.902 81.274 30.88 77.442 21.306C77.3625 21.1075 77.2386 20.9299 77.0798 20.7867C76.9211 20.6435 76.7316 20.5386 76.526 20.48C76.044 20.342 64.6 17.182 57.338 24.68L50.938 31.332L43.672 29.088C42.3403 28.6773 40.9218 28.6384 39.5696 28.9754C38.2175 29.3123 36.9831 30.0124 36 31L30.73 36.268C30.5824 36.4154 30.4697 36.5938 30.4 36.7904C30.3303 36.9869 30.3053 37.1965 30.327 37.4039C30.3486 37.6113 30.4163 37.8112 30.5252 37.9891C30.634 38.167 30.7812 38.3183 30.956 38.432L40.37 44.56L42.742 46.8L40.376 49.66C40.1563 49.9254 40.0421 50.2625 40.0554 50.6068C40.0687 50.951 40.2085 51.2783 40.448 51.526L46.98 58.284C47.2219 58.5341 47.5482 58.6851 47.8954 58.7076C48.2426 58.7302 48.5857 58.6227 48.858 58.406L52.238 55.72L55.136 58.442C55.3255 58.6203 55.561 58.7421 55.816 58.794C55.8466 58.8494 55.8807 58.9028 55.918 58.954L62.718 68.044C62.8449 68.2121 63.0081 68.3494 63.1954 68.4457C63.3828 68.5419 63.5894 68.5947 63.8 68.6H63.854C64.0534 68.6003 64.2506 68.558 64.4324 68.4759C64.6142 68.3938 64.7763 68.2739 64.908 68.124L69.82 62.524C70.7437 61.4759 71.3625 60.1947 71.6093 58.8195C71.8562 57.4444 71.7215 56.028 71.22 54.724L68.334 47.172L75 40.498C75.0635 40.431 75.1204 40.358 75.17 40.28ZM37.97 32.976C38.5956 32.3497 39.3808 31.9067 40.2404 31.6952C41.1 31.4836 42.0011 31.5116 42.846 31.776L48.766 33.6L41.022 41.65L33.924 37.03L37.97 32.976ZM48.108 55.416L43.33 50.472L44.786 48.712L50.174 53.776L48.108 55.416ZM68.6 55.724C68.9174 56.5508 69.0026 57.4487 68.8464 58.3205C68.6903 59.1923 68.2986 60.0048 67.714 60.67L63.94 64.976L58.196 57.304L66.158 49.342L68.6 55.724ZM56.074 55.466L43.22 43.4L59.354 26.63C64.532 21.28 72.716 22.516 75.092 23.016C77.664 30.47 73.492 37.676 72.902 38.63L56.074 55.466Z" fill="#251AC7"/>
<path d="M38.86 53.886C38.0261 53.897 37.2027 54.073 36.4372 54.4039C35.6717 54.7349 34.9793 55.2141 34.4 55.814C32.368 57.908 28.778 68.966 28.078 71.162C27.9935 71.4271 27.9899 71.7113 28.0676 71.9784C28.1453 72.2456 28.3009 72.4835 28.5144 72.6618C28.7279 72.8401 28.9898 72.9508 29.2665 72.9797C29.5432 73.0086 29.8222 72.9544 30.068 72.824C31.234 72.206 41.518 66.73 43.522 64.668C44.3924 63.7722 44.9795 62.6398 45.21 61.4122C45.4404 60.1846 45.3039 58.9163 44.8175 57.7659C44.3312 56.6154 43.5166 55.6338 42.4755 54.9438C41.4344 54.2537 40.213 53.8858 38.964 53.886H38.86ZM41.43 57.686C42.1062 58.3426 42.494 59.2408 42.5082 60.1833C42.5225 61.1257 42.162 62.0352 41.506 62.712C40.506 63.744 35.854 66.462 31.842 68.674C33.596 63.542 35.542 58.648 36.404 57.76C36.7282 57.4237 37.1159 57.1553 37.5448 56.9702C37.9736 56.7851 38.435 56.6872 38.902 56.682H38.956C39.8799 56.6779 40.7684 57.0371 41.43 57.682V57.686Z" fill="#251AC7"/>
<path d="M65.922 27.746C64.8935 27.746 63.8882 28.0509 63.033 28.6223C62.1779 29.1937 61.5114 30.0058 61.1178 30.956C60.7242 31.9062 60.6213 32.9517 60.8219 33.9604C61.0225 34.9691 61.5178 35.8957 62.245 36.6229C62.9723 37.3502 63.8988 37.8454 64.9075 38.0461C65.9162 38.2467 66.9618 38.1437 67.9119 37.7501C68.8621 37.3566 69.6742 36.6901 70.2456 35.8349C70.817 34.9798 71.122 33.9744 71.122 32.946C71.122 31.5668 70.5741 30.2442 69.5989 29.269C68.6238 28.2938 67.3011 27.746 65.922 27.746ZM65.922 35.346C65.4473 35.346 64.9833 35.2052 64.5886 34.9415C64.1939 34.6778 63.8863 34.303 63.7047 33.8644C63.523 33.4259 63.4755 32.9433 63.5681 32.4778C63.6607 32.0122 63.8893 31.5846 64.2249 31.2489C64.5606 30.9133 64.9882 30.6847 65.4538 30.5921C65.9193 30.4995 66.4019 30.547 66.8404 30.7287C67.279 30.9103 67.6538 31.2179 67.9175 31.6126C68.1812 32.0073 68.322 32.4713 68.322 32.946C68.3222 33.2613 68.2604 33.5736 68.1399 33.865C68.0194 34.1564 67.8426 34.4212 67.6197 34.6443C67.3969 34.8674 67.1322 35.0444 66.8409 35.1651C66.5496 35.2858 66.2373 35.348 65.922 35.348V35.346Z" fill="#251AC7"/>
</svg>
