<svg width="100" height="100" viewBox="0 0 100 100" fill="none" xmlns="http://www.w3.org/2000/svg">
<path d="M34.98 40.746H21.69V72.506H34.98V40.746Z" fill="#EFD700"/>
<path d="M43.2 54.0359C43.2 54.0359 43.876 64.172 50.972 67.212C58.068 70.2519 83.746 69.24 83.746 69.24C83.746 69.24 83.408 74.6399 80.704 75.3219C78 76.0039 53.336 76 53.336 76L43.876 70.2559L43.2 54.0359Z" fill="#EFD700"/>
<path d="M86.04 43.476V43.112C86.04 41.5737 85.4289 40.0985 84.3412 39.0107C83.2535 37.923 81.7783 37.312 80.24 37.312H67.988V25.672C67.9859 24.0475 67.3395 22.4903 66.1907 21.3419C65.0419 20.1934 63.4844 19.5475 61.86 19.546H61.47C59.8456 19.5475 58.2881 20.1934 57.1393 21.3419C55.9905 22.4903 55.3441 24.0475 55.342 25.672V25.71C55.3481 28.4617 54.7308 31.1792 53.5365 33.6582C52.3421 36.1373 50.6018 38.3137 48.446 40.024L45.788 42.146H44.422V41.288C44.4215 40.7906 44.2236 40.3137 43.8719 39.962C43.5202 39.6103 43.0434 39.4125 42.546 39.412H22.324C21.8268 39.4125 21.3501 39.6104 20.9988 39.9621C20.6474 40.3139 20.45 40.7908 20.45 41.288V73.018C20.4505 73.5148 20.6481 73.9912 20.9995 74.3425C21.3508 74.6938 21.8271 74.8914 22.324 74.892H42.546C43.0432 74.892 43.5201 74.6946 43.8718 74.3432C44.2236 73.9918 44.4215 73.5152 44.422 73.018V72.8C45.6988 74.0833 47.2165 75.1019 48.8879 75.7972C50.5594 76.4925 52.3517 76.851 54.162 76.852H79.818C81.3542 76.852 82.8276 76.2425 83.915 75.1574C85.0023 74.0723 85.6148 72.6001 85.618 71.064V70.7C85.6192 69.9378 85.4693 69.183 85.1768 68.4792C84.8843 67.7755 84.4551 67.1367 83.914 66.6C83.84 66.526 83.766 66.454 83.688 66.386C84.3678 65.8441 84.9166 65.156 85.2937 64.3727C85.6708 63.5895 85.8664 62.7313 85.866 61.862V61.498C85.8655 60.6177 85.6646 59.7491 85.2785 58.958C84.8925 58.1669 84.3315 57.4741 83.638 56.932C83.698 56.878 83.756 56.822 83.814 56.764C84.3538 56.227 84.7819 55.5884 85.0733 54.885C85.3648 54.1816 85.5139 53.4273 85.512 52.666V52.302C85.5132 51.5163 85.3541 50.7387 85.0447 50.0165C84.7352 49.2944 84.2817 48.6429 83.712 48.102C84.4319 47.564 85.017 46.866 85.421 46.0632C85.825 45.2604 86.0369 44.3747 86.04 43.476ZM82.85 71.064C82.8474 71.8678 82.5269 72.638 81.9584 73.2064C81.39 73.7748 80.6199 74.0953 79.816 74.098H54.164C52.6187 74.0975 51.091 73.7711 49.6804 73.1401C48.2699 72.5091 47.0083 71.5876 45.978 70.436C45.8485 70.2914 45.6901 70.1757 45.513 70.0965C45.3359 70.0172 45.144 69.9762 44.95 69.976H44.422V44.902H46.272C46.5843 44.9019 46.8874 44.7961 47.132 44.602L50.166 42.18C52.6462 40.212 54.6484 37.7078 56.0222 34.8553C57.3959 32.0027 58.1056 28.8761 58.098 25.71V25.674C58.0996 24.7803 58.4554 23.9238 59.0875 23.2921C59.7196 22.6603 60.5764 22.305 61.47 22.304H61.86C62.7533 22.305 63.6098 22.6601 64.2418 23.2913C64.8738 23.9226 65.2299 24.7787 65.232 25.672V38.622C65.2315 38.8747 65.3006 39.1226 65.4319 39.3386C65.5631 39.5545 65.7514 39.7301 65.976 39.846L66.112 39.918C66.3085 40.0197 66.5267 40.0725 66.748 40.072H80.246C81.0514 40.0735 81.8233 40.3945 82.3924 40.9644C82.9616 41.5342 83.2815 42.3066 83.282 43.112V43.476C83.2804 44.281 82.9598 45.0526 82.3903 45.6217C81.8209 46.1908 81.0491 46.5109 80.244 46.512H79.718C79.3614 46.5255 79.0238 46.6768 78.7763 46.9339C78.5288 47.191 78.3905 47.5341 78.3905 47.891C78.3905 48.2479 78.5288 48.5909 78.7763 48.848C79.0238 49.1051 79.3614 49.2564 79.718 49.27C80.5234 49.271 81.2955 49.5914 81.865 50.1609C82.4345 50.7304 82.7549 51.5026 82.756 52.308V52.672C82.7555 53.4773 82.4352 54.2495 81.8655 54.8189C81.2958 55.3882 80.5234 55.708 79.718 55.708C79.5325 55.7009 79.3475 55.7313 79.174 55.7975C79.0005 55.8636 78.8422 55.964 78.7084 56.0928C78.5747 56.2215 78.4683 56.3759 78.3956 56.5467C78.3229 56.7176 78.2855 56.9013 78.2855 57.087C78.2855 57.2726 78.3229 57.4563 78.3956 57.6272C78.4683 57.798 78.5747 57.9524 78.7084 58.0812C78.8422 58.2099 79.0005 58.3104 79.174 58.3765C79.3475 58.4426 79.5325 58.473 79.718 58.466H80.074C80.8794 58.467 81.6515 58.7874 82.221 59.3569C82.7905 59.9264 83.1109 60.6986 83.112 61.504V61.868C83.1109 62.6737 82.7902 63.4461 82.2203 64.0157C81.6504 64.5853 80.8777 64.9054 80.072 64.906H79.784C79.427 64.9232 79.0907 65.0783 78.8457 65.3386C78.6008 65.5989 78.4664 65.944 78.4708 66.3014C78.4752 66.6587 78.6181 67.0004 78.8694 67.2546C79.1206 67.5087 79.4607 67.6555 79.818 67.664C80.6228 67.665 81.3943 67.9856 81.9629 68.5553C82.5314 69.125 82.8505 69.8971 82.85 70.702V71.064ZM23.2 42.17H41.658V72.136H23.2V42.17Z" fill="white"/>
<path d="M80.2 22.584H85.268C85.449 22.5842 85.6283 22.5488 85.7956 22.4796C85.9629 22.4105 86.115 22.309 86.243 22.181C86.371 22.0529 86.4725 21.9009 86.5416 21.7336C86.6108 21.5663 86.6463 21.387 86.646 21.206V6.67797C86.6463 6.49684 86.6108 6.31744 86.5417 6.15002C86.4725 5.9826 86.3711 5.83046 86.2431 5.70229C86.1151 5.57412 85.9631 5.47243 85.7958 5.40306C85.6285 5.33368 85.4491 5.29797 85.268 5.29797H80.2C79.834 5.29797 79.483 5.44337 79.2242 5.70217C78.9654 5.96097 78.82 6.31197 78.82 6.67797V21.2C78.8192 21.3816 78.8543 21.5616 78.9233 21.7296C78.9924 21.8976 79.0939 22.0503 79.2222 22.179C79.3504 22.3076 79.5028 22.4096 79.6706 22.4791C79.8385 22.5486 80.0184 22.5842 80.2 22.584ZM81.578 8.05597H83.89V19.828H81.576L81.578 8.05597Z" fill="white"/>
<path d="M82.478 24.782C81.487 24.782 80.5182 25.0758 79.6941 25.6262C78.87 26.1767 78.2276 26.9591 77.8481 27.8746C77.4686 28.7901 77.369 29.7975 77.5619 30.7696C77.7548 31.7416 78.2315 32.6347 78.9319 33.3359C79.6322 34.0371 80.5247 34.5149 81.4965 34.7089C82.4684 34.903 83.4759 34.8046 84.3919 34.4262C85.3078 34.0478 86.091 33.4063 86.6424 32.5829C87.1939 31.7594 87.4888 30.791 87.49 29.8C87.4905 28.47 86.9628 27.1943 86.023 26.2533C85.0831 25.3123 83.808 24.783 82.478 24.782ZM82.478 32.048C82.032 32.048 81.5959 31.9156 81.2251 31.6677C80.8543 31.4198 80.5654 31.0674 80.395 30.6552C80.2246 30.2429 80.1803 29.7894 80.2678 29.352C80.3552 28.9146 80.5705 28.513 80.8863 28.198C81.2021 27.8831 81.6043 27.6689 82.042 27.5826C82.4796 27.4963 82.933 27.5418 83.3447 27.7133C83.7565 27.8848 84.1081 28.1746 84.3551 28.5461C84.602 28.9176 84.7332 29.3539 84.732 29.8C84.7294 30.3964 84.4909 30.9676 84.0685 31.3888C83.6462 31.8099 83.0744 32.0469 82.478 32.048Z" fill="white"/>
</svg>
