<svg width="120" height="120" viewBox="0 0 120 120" fill="none" xmlns="http://www.w3.org/2000/svg">
<path d="M47.256 29.5919H75.276V33.8879H47.256V29.5919Z" fill="#69D7F9"/>
<path d="M74.9759 21.8879H78.2759V33.8879H74.7479V21.8879" fill="#69D7F9"/>
<path d="M79.9919 33.252H85.4879V54.156H79.9919V33.252Z" fill="#69D7F9"/>
<path d="M83.652 91.82L73.284 98.948H68.4C70.9981 97.511 73.4779 95.8698 75.816 94.04C79.86 90.896 79.2 88.184 79.2 88.184V56.468H85.092L84.84 88.184C84.5278 89.4218 84.1308 90.6367 83.652 91.82Z" fill="#69D7F9"/>
<path d="M78.276 32.8879V20.8879H74.976H50.724" stroke="#3A00BA" stroke-width="2.7" stroke-miterlimit="10"/>
<path d="M44.976 32.8879H47.412H53.496H53.64H57.492H64.992H66.36H68.976H74.976H78.276H79.932H84.84V53.1559" stroke="#3A00BA" stroke-width="2.7" stroke-miterlimit="10"/>
<path d="M84.8399 56.432V88.184C84.8373 88.9567 84.651 89.7177 84.2963 90.4041C83.9416 91.0906 83.4287 91.6829 82.7999 92.132L73.2719 98.948H56.4719" stroke="#3A00BA" stroke-width="2.7" stroke-miterlimit="10"/>
<path d="M47.412 32.8879V20.8879H50.724H74.976V32.8879" stroke="#3A00BA" stroke-width="2.7" stroke-miterlimit="10"/>
<path d="M53.496 32.888V25.796H57.492V32.888" stroke="#3A00BA" stroke-width="2.7" stroke-miterlimit="10"/>
<path d="M64.9919 32.888V25.796H68.9759V32.888" stroke="#3A00BA" stroke-width="2.7" stroke-miterlimit="10"/>
<path d="M79.932 53.1559V32.8879H78.276H74.976H68.976H66.36H64.992H57.492H53.64H53.496H47.412H44.976H40.068V53.1559" stroke="#3A00BA" stroke-width="2.7" stroke-miterlimit="10"/>
<path d="M40.068 56.432V88.184C40.0692 88.9556 40.2537 89.716 40.6063 90.4024C40.9589 91.0887 41.4695 91.6816 42.096 92.132L51.6 98.948H68.4L77.928 92.132C78.5545 91.6816 79.0651 91.0887 79.4177 90.4024C79.7703 89.716 79.9548 88.9556 79.956 88.184V56.432" stroke="#3A00BA" stroke-width="2.7" stroke-miterlimit="10"/>
<path d="M51.468 87.656H68.532" stroke="#3A00BA" stroke-width="2.7" stroke-miterlimit="10"/>
<path d="M59.616 59.9V82.544" stroke="#3A00BA" stroke-width="2.7" stroke-miterlimit="10"/>
<path d="M60.228 75.656H64.476V66.14" stroke="#3A00BA" stroke-width="2.7" stroke-miterlimit="10"/>
<path d="M59.16 72.044H54.912V62.528" stroke="#3A00BA" stroke-width="2.7" stroke-miterlimit="10"/>
<path d="M34.428 19.88V13.496H40.812" stroke="#3A00BA" stroke-width="2.7" stroke-miterlimit="10"/>
<path d="M82.788 13.496H89.172V19.88" stroke="#3A00BA" stroke-width="2.7" stroke-miterlimit="10"/>
<path d="M40.812 104.504H34.428V98.12" stroke="#3A00BA" stroke-width="2.7" stroke-miterlimit="10"/>
<path d="M89.172 98.12V104.504H82.788" stroke="#3A00BA" stroke-width="2.7" stroke-miterlimit="10"/>
<path d="M32.772 53.156H92.028" stroke="#3A00BA" stroke-width="2.7" stroke-miterlimit="10"/>
</svg>
