<svg width="101" height="100" viewBox="0 0 101 100" fill="none" xmlns="http://www.w3.org/2000/svg">
<path d="M54.6267 50.136C53.99 52.2657 52.8609 54.2157 51.3307 55.828C50.2647 56.948 49.0227 57.886 47.9307 58.972C46.2535 60.6439 44.9291 62.6354 44.0358 64.8286C43.1426 67.0219 42.6988 69.3721 42.7307 71.74C40.6367 68.94 39.5467 65.282 40.3107 61.872C41.0747 58.462 43.8967 55.472 47.3587 54.99C48.3947 54.846 49.4527 54.92 50.4847 54.744C51.5167 54.568 52.5747 54.074 53.0507 53.144" fill="#EFD700"/>
<path d="M46.4147 53.466C46.4055 53.4585 46.3968 53.4505 46.3887 53.442L45.6487 52.67C45.6865 53.0443 45.671 53.422 45.6027 53.792C45.8767 53.672 46.1487 53.564 46.4147 53.466Z" fill="white"/>
<path d="M40.7207 74.558C40.6607 74.622 40.6007 74.686 40.5387 74.748H40.7587C40.7447 74.684 40.7327 74.62 40.7207 74.558Z" fill="white"/>
<path d="M40.4907 57.764C40.4127 57.764 40.3327 57.764 40.2547 57.764C40.2098 57.9991 40.1429 58.2295 40.0547 58.452C40.2087 58.216 40.3647 57.988 40.5267 57.772L40.4907 57.764Z" fill="white"/>
<path d="M38.3347 62.5C38.5947 61.4276 38.9821 60.3902 39.4887 59.41C39.3233 59.6184 39.1378 59.81 38.9347 59.982L38.1347 60.648C37.8331 60.8966 37.496 61.0989 37.1347 61.248L38.3347 62.5Z" fill="white"/>
<path d="M78.5147 40.294L82.1347 36.816C82.2674 36.6886 82.3736 36.5364 82.4475 36.3679C82.5213 36.1995 82.5612 36.0181 82.5649 35.8343C82.5686 35.6504 82.5361 35.4676 82.4691 35.2963C82.4022 35.125 82.3021 34.9686 82.1747 34.836L61.7527 13.582C61.6253 13.4493 61.4731 13.343 61.3046 13.2692C61.1362 13.1954 60.9548 13.1555 60.771 13.1518C60.5871 13.1481 60.4043 13.1806 60.233 13.2476C60.0617 13.3145 59.9053 13.4146 59.7727 13.542L56.1527 17.02L50.2487 10.874C49.991 10.6068 49.6378 10.4528 49.2667 10.446H49.2387C48.8764 10.449 48.5294 10.5924 48.2707 10.846L43.0087 15.89C41.0568 17.765 39.8852 20.3081 39.7283 23.0101C39.5714 25.7121 40.4409 28.3737 42.1627 30.462L42.0927 30.53C40.5003 32.0529 39.3319 33.9643 38.7027 36.076L37.9487 36.53C37.0599 37.0663 36.4199 37.9331 36.1691 38.9405C35.9183 39.9478 36.0771 41.0135 36.6107 41.904L36.6987 42.05C36.2449 42.1333 35.8099 42.2979 35.4147 42.536L34.1407 43.302C33.4366 43.7268 32.8839 44.3623 32.5608 45.1186C32.2378 45.8748 32.1608 46.7135 32.3407 47.516C32.2487 47.502 32.1567 47.486 32.0627 47.478C31.5505 47.4318 31.0342 47.4876 30.5437 47.6421C30.0531 47.7966 29.598 48.0467 29.2047 48.378L28.4047 49.044C28.0094 49.3734 27.6834 49.778 27.4455 50.2342C27.2076 50.6904 27.0625 51.1893 27.0187 51.702C27.0187 51.83 27.0027 51.958 27.0047 52.084C25.8062 51.7353 24.537 51.7083 23.3247 52.0056C22.1124 52.303 20.9998 52.9143 20.0987 53.778L14.2667 59.38C14.134 59.5073 14.0277 59.6596 13.9539 59.828C13.8801 59.9965 13.8402 60.1778 13.8365 60.3617C13.8328 60.5456 13.8653 60.7284 13.9323 60.8997C13.9992 61.071 14.0993 61.2274 14.2267 61.36L32.5747 80.458C32.702 80.5907 32.8543 80.6969 33.0227 80.7708C33.1912 80.8446 33.3725 80.8845 33.5564 80.8882C33.7403 80.8919 33.9231 80.8594 34.0944 80.7924C34.2657 80.7255 34.4221 80.6254 34.5547 80.498L38.5547 76.654V90.284C38.5547 90.6553 38.7022 91.0114 38.9647 91.2739C39.2273 91.5365 39.5834 91.684 39.9547 91.684C40.326 91.684 40.6821 91.5365 40.9446 91.2739C41.2072 91.0114 41.3547 90.6553 41.3547 90.284V77.548H59.5667V90.284C59.5667 90.6553 59.7142 91.0114 59.9767 91.2739C60.2393 91.5365 60.5954 91.684 60.9667 91.684C61.338 91.684 61.6941 91.5365 61.9566 91.2739C62.2192 91.0114 62.3667 90.6553 62.3667 90.284V76.148C62.3667 75.7767 62.2192 75.4206 61.9566 75.158C61.6941 74.8955 61.338 74.748 60.9667 74.748H57.4667C57.2167 72.6 57.9427 70.314 58.7067 67.92C59.2067 66.356 59.7227 64.742 59.9867 63.09C60.2947 61.158 60.2407 59.23 60.1867 57.364C60.1867 57.08 60.1727 56.8 60.1647 56.522C61.7627 55.9126 63.2212 54.9867 64.4527 53.8L64.5307 53.724C66.4257 55.381 68.8458 56.314 71.3627 56.358H71.5827C74.3565 56.3627 77.023 55.2866 79.0167 53.358L84.2787 48.302C84.4112 48.1745 84.5173 48.0221 84.591 47.8536C84.6646 47.6851 84.7044 47.5037 84.7079 47.3199C84.7114 47.136 84.6787 46.9532 84.6116 46.782C84.5444 46.6108 84.4442 46.4545 84.3167 46.322L78.5147 40.294ZM71.4187 53.562C69.6453 53.5311 67.9343 52.9025 66.5627 51.778L76.4947 42.234L81.3287 47.266L77.0767 51.35C76.3276 52.0757 75.4415 52.6451 74.4701 53.0249C73.4987 53.4046 72.4614 53.5872 71.4187 53.562ZM57.3887 57.442C57.4407 59.26 57.4887 60.976 57.2207 62.642C56.9907 64.086 56.5287 65.53 56.0407 67.06C55.2407 69.556 54.4267 72.12 54.6407 74.742H43.6227C43.4447 73.988 43.3427 73.332 43.2327 72.626C43.0707 71.586 42.8847 70.552 42.6327 69.534C42.4467 68.808 42.1887 68.104 41.9867 67.386C41.7847 66.668 41.6027 65.896 41.3487 65.154C41.1347 64.526 40.9327 63.808 41.0607 63.142C41.2019 62.53 41.4091 61.9352 41.6787 61.368C42.1931 60.1742 42.9435 59.0966 43.8847 58.2C45.0407 57.118 46.8207 55.908 48.4507 55.912C48.8387 55.912 49.2287 55.926 49.6187 55.912C53.1987 55.806 54.5227 51.878 55.3047 48.972C55.7347 47.372 56.1407 45.872 57.0107 44.858C57.4427 44.354 57.9667 44.15 58.1407 44.23C58.3147 44.31 58.4867 44.66 58.5667 45.212C58.7567 46.548 58.4207 47.962 58.0647 49.46C57.8967 50.174 57.7207 50.914 57.5987 51.66C57.2807 53.618 57.3367 55.562 57.3887 57.442ZM28.1287 55.92L38.5747 66.8C38.8375 67.0744 39.0627 67.3824 39.2447 67.716C39.2348 67.8888 39.2579 68.0618 39.3127 68.226C39.4947 68.772 39.6447 69.264 39.7707 69.714C39.7707 69.766 39.7707 69.816 39.7707 69.868C39.7607 70.4331 39.6387 70.9907 39.4118 71.5084C39.1849 72.0261 38.8575 72.4937 38.4487 72.884L33.6287 77.516L17.2287 60.438L22.0447 55.8C22.8678 55.0099 23.9708 54.5787 25.1115 54.6012C26.2522 54.6237 27.3374 55.098 28.1287 55.92ZM31.0027 50.52C31.203 50.3513 31.4568 50.2591 31.7187 50.26C31.7513 50.258 31.784 50.258 31.8167 50.26C31.9632 50.2731 32.1057 50.3152 32.2359 50.3839C32.366 50.4525 32.4812 50.5464 32.5747 50.66L37.2727 56.26C37.4623 56.487 37.5542 56.7799 37.5284 57.0745C37.5025 57.3691 37.3609 57.6415 37.1347 57.832L36.3347 58.498C36.1077 58.6876 35.8148 58.7795 35.5202 58.7537C35.2255 58.7278 34.9532 58.5862 34.7627 58.36L30.0647 52.76C29.8746 52.5332 29.7823 52.2402 29.8082 51.9454C29.8341 51.6506 29.976 51.3782 30.2027 51.188L31.0027 50.52ZM35.5827 45.698L36.8587 44.93C37.0312 44.8258 37.2291 44.7712 37.4307 44.772C37.6234 44.7714 37.813 44.8209 37.981 44.9155C38.1489 45.0102 38.2894 45.1468 38.3887 45.312L42.7147 52.512C42.8668 52.7654 42.9123 53.0687 42.8411 53.3556C42.7698 53.6424 42.5877 53.8893 42.3347 54.042L41.0667 54.8C40.8131 54.952 40.5095 54.9971 40.2227 54.9255C39.9358 54.8539 39.6891 54.6713 39.5367 54.418L35.2107 47.218C35.0622 46.9668 35.018 46.6675 35.0875 46.3841C35.1571 46.1008 35.3348 45.8559 35.5827 45.702V45.698ZM49.2007 13.824L54.1347 18.96L44.1887 28.516C42.9817 26.9681 42.3914 25.0277 42.5318 23.0699C42.6721 21.1121 43.5333 19.2759 44.9487 17.916L49.2007 13.824ZM62.5127 51.786C61.8276 52.444 61.0517 53.0003 60.2087 53.438C60.2427 52.994 60.2907 52.556 60.3607 52.12C60.4687 51.464 60.6247 50.806 60.7907 50.108C61.1907 48.422 61.6027 46.68 61.3367 44.818C61.1207 43.304 60.4027 42.194 59.3167 41.69C57.6967 40.942 55.9167 41.826 54.8847 43.036C53.6027 44.532 53.0847 46.42 52.6007 48.236C52.0647 50.236 51.6247 51.668 50.6647 52.564C50.4787 52.564 50.1567 52.594 49.7367 52.648C49.261 52.3031 48.8166 51.9169 48.4087 51.494L46.9887 50.016L47.5887 49.658C48.4776 49.1217 49.1175 48.2547 49.3679 47.2472C49.6184 46.2398 49.459 45.1741 48.9247 44.284L44.5987 37.084C44.3181 36.6187 43.9435 36.2171 43.4989 35.9048C43.0543 35.5925 42.5495 35.3763 42.0167 35.27C42.5283 34.2495 43.2108 33.3241 44.0347 32.534L60.7087 16.516L79.1887 35.752L62.5127 51.786ZM38.1387 60.648L38.9387 59.982C39.1417 59.81 39.3273 59.6184 39.4927 59.41C38.9861 60.3902 38.5986 61.4276 38.3387 62.5L37.1387 61.256C37.5005 61.1044 37.8376 60.8995 38.1387 60.648ZM40.2547 57.756C40.3327 57.756 40.4127 57.756 40.4907 57.756H40.5227C40.3607 57.972 40.2047 58.2 40.0507 58.436C40.1398 58.2162 40.2081 57.9885 40.2547 57.756ZM45.6547 52.67L46.3947 53.442C46.4028 53.4505 46.4115 53.4585 46.4207 53.466C46.1547 53.564 45.8827 53.666 45.6087 53.792C45.675 53.4218 45.6885 53.044 45.6487 52.67H45.6547ZM40.6667 38.164C40.7921 38.0884 40.9311 38.0382 41.0759 38.0164C41.2207 37.9946 41.3684 38.0015 41.5105 38.0368C41.6526 38.0721 41.7863 38.1351 41.9041 38.2221C42.0218 38.3091 42.1212 38.4185 42.1967 38.544L46.5247 45.744C46.6767 45.9976 46.7218 46.3011 46.6502 46.588C46.5786 46.8749 46.396 47.1216 46.1427 47.274L44.8667 48.034C44.6133 48.1861 44.3099 48.2316 44.0231 48.1604C43.7363 48.0891 43.4894 47.907 43.3367 47.654L39.0107 40.454C38.9348 40.3287 38.8844 40.1896 38.8625 40.0448C38.8405 39.8999 38.8474 39.7522 38.8827 39.61C38.918 39.4678 38.9811 39.334 39.0682 39.2163C39.1554 39.0986 39.265 38.9992 39.3907 38.924L40.6667 38.164ZM40.7227 74.564C40.7347 74.626 40.7467 74.69 40.7607 74.754H40.5407C40.6007 74.686 40.6667 74.622 40.7207 74.558L40.7227 74.564Z" fill="white"/>
<path d="M61.6007 29.534L63.3607 30.62L57.9067 35.784L56.9887 34.766C56.7399 34.4902 56.3917 34.3245 56.0208 34.3054C55.6499 34.2862 55.2865 34.4152 55.0107 34.664C54.7348 34.9128 54.5691 35.2609 54.55 35.6319C54.5309 36.0028 54.6599 36.3662 54.9087 36.642L57.8667 39.914C58.1154 40.1898 58.4636 40.3555 58.8346 40.3747C59.2055 40.3938 59.5689 40.2648 59.8447 40.016C60.1205 39.7672 60.2862 39.4191 60.3053 39.0481C60.3245 38.6772 60.1954 38.3138 59.9467 38.038L59.7907 37.866L66.6067 31.4C66.7609 31.2525 66.8793 31.0716 66.9529 30.8713C67.0265 30.671 67.0533 30.4565 67.0313 30.2442C67.0093 30.0319 66.9391 29.8275 66.8259 29.6465C66.7128 29.4655 66.5598 29.3128 66.3787 29.2L63.0667 27.15C62.9101 27.0534 62.7361 26.9885 62.5545 26.9591C62.3729 26.9297 62.1873 26.9364 62.0082 26.9787C61.8292 27.0211 61.6603 27.0982 61.5111 27.2059C61.3619 27.3135 61.2353 27.4495 61.1387 27.606C61.042 27.7625 60.9771 27.9366 60.9478 28.1182C60.9184 28.2998 60.925 28.4854 60.9674 28.6645C61.0097 28.8435 61.0869 29.0124 61.1945 29.1616C61.3022 29.3108 61.4381 29.4374 61.5947 29.534H61.6007Z" fill="white"/>
</svg>
